<svg width="276" height="199" viewBox="0 0 276 199" fill="none" xmlns="http://www.w3.org/2000/svg"><path d="M275.638 178.862C274.841 168.14 260.281 168.068 252.53 166.402C253.399 167.561 254.268 168.72 255.21 169.879C255.065 168.503 254.848 167.271 254.558 165.967C253.399 167.488 252.24 169.01 251.081 170.531C254.775 170.531 260.498 171.69 263.685 169.299C267.09 166.764 266.293 162.345 266.293 158.723C266.221 146.118 266.293 133.513 266.293 120.98C266.293 95.263 266.293 69.4734 266.293 43.7563C266.293 37.3813 266.293 31.0788 266.293 24.7039C266.293 18.6911 267.018 12.3162 266.293 6.37589C265.714 1.59467 262.454 0.218263 258.107 0.218263C251.733 0.218263 245.43 0.218263 239.056 0.218263C213.267 0.218263 187.478 0.218263 161.689 0.218263C135.827 0.218263 109.966 0.218263 84.1043 0.218263C71.2823 0.218263 58.5327 0.290706 45.7107 0.218263C39.6981 0.218263 33.6855 0.000935309 27.6729 0.073378C23.4713 0.145821 17.5311 -0.578606 15.7201 4.34749C13.9815 9.05627 15.213 15.5037 15.213 20.4298C15.213 26.8772 15.213 33.397 15.213 39.8444C15.213 52.7392 15.213 65.634 15.213 78.5288C15.213 84.9037 15.213 91.2787 15.213 97.6536C15.213 103.956 15.9374 110.693 14.5611 116.778C11.8083 128.949 9.49019 141.192 6.88231 153.362C5.57838 159.447 4.202 165.605 2.89806 171.69C1.81145 176.616 -0.434223 182.122 0.217746 187.193C1.3768 196.393 10.4319 197.842 17.9658 196.176C30.0634 193.568 42.0162 190.018 54.0414 187.048C60.2713 185.527 66.5012 184.005 72.7311 182.412C78.0918 181.035 84.7563 180.238 89.465 177.196C93.087 174.878 95.1878 171.255 95.0429 166.981C93.8114 168.213 92.6524 169.372 91.4209 170.603C108.952 170.603 126.555 170.603 144.085 170.603C143.071 168.792 141.985 166.981 140.971 165.17C138.87 168.43 138.942 172.559 140.971 175.819C143.361 179.514 148.432 180.745 152.344 182.194C157.27 183.933 161.833 185.961 167.194 185.382C172.989 184.802 178.785 183.716 184.58 182.774C183.059 181.615 181.537 180.456 180.016 179.297C179.437 189.511 190.085 191.757 197.764 194.654C202.111 196.321 206.385 198.059 211.093 198.277C216.309 198.566 221.815 197.117 226.958 196.321C237.752 194.654 248.473 192.988 259.267 191.394C263.541 190.742 268.901 191.032 272.306 187.917C274.986 185.454 276.145 181.615 275.638 178.065C274.986 173.501 268.032 175.457 268.684 180.021C269.191 183.571 263.685 183.643 261.512 183.933C257.745 184.367 253.978 185.019 250.284 185.599C242.315 186.831 234.419 188.062 226.523 189.221C218.989 190.38 211.89 192.119 204.501 189.511C201.096 188.352 197.764 186.975 194.359 185.744C191.027 184.44 187.188 183.571 187.405 179.369C187.55 176.761 185.015 175.529 182.841 175.892C175.742 176.978 167.339 179.659 160.312 177.413C157.197 176.399 154.082 175.24 151.04 174.008C148.722 173.139 145.534 171.835 147.418 168.937C148.939 166.619 146.911 163.504 144.303 163.504C126.772 163.504 109.169 163.504 91.6382 163.504C89.6823 163.504 87.9437 165.17 88.0162 167.126C88.161 172.197 81.5689 172.777 77.8744 173.791C72.1516 175.312 66.3563 176.761 60.561 178.137C49.55 180.818 38.6114 183.643 27.6004 186.468C23.1815 187.555 18.6902 189.149 14.1988 189.728C10.2146 190.235 7.17208 189.294 7.46184 184.657C7.82404 180.238 9.63507 175.529 10.5768 171.11C11.8807 165.17 13.1847 159.23 14.4162 153.362C16.8067 142.496 18.9799 131.629 21.2256 120.763C21.6603 118.807 22.3122 116.778 22.5296 114.823C22.8193 112.07 22.5296 109.1 22.5296 106.347C22.5296 100.189 22.5296 94.0315 22.5296 87.9463C22.5296 65.0544 22.602 42.0901 22.5296 19.1982C22.5296 16.9525 22.4571 14.7068 22.4571 12.3886C22.4571 11.0847 22.6744 9.63581 22.4571 8.40428C22.4571 7.96963 22.4571 7.60741 22.5296 7.17276C21.8776 7.89718 22.2398 8.04207 23.6162 7.60741C26.1516 8.04207 29.339 7.53497 31.9469 7.53497C35.2067 7.53497 38.3941 7.60741 41.654 7.67986C52.9548 7.82474 64.328 7.7523 75.6288 7.7523C98.5925 7.7523 121.556 7.7523 144.52 7.7523C167.556 7.7523 190.52 7.7523 213.556 7.7523C224.93 7.7523 236.303 7.7523 247.676 7.7523C250.501 7.7523 253.254 7.7523 256.079 7.7523C256.731 7.7523 258.687 7.46253 259.267 7.7523C259.556 7.89718 259.484 7.89719 259.267 9.2736C258.397 14.9966 259.122 21.3715 259.122 27.0945C259.122 52.7392 259.122 78.3839 259.122 104.029C259.122 116.996 259.122 129.891 259.122 142.858C259.122 148.726 258.977 154.594 259.122 160.389C259.122 161.113 259.122 161.91 259.194 162.635C259.194 163.069 259.194 163.576 259.194 164.011C260.86 163.576 260.933 163.432 259.411 163.576C256.804 163.142 253.833 163.576 251.153 163.576C248.763 163.576 247.096 165.895 247.676 168.14C247.893 168.792 248.038 169.444 248.111 170.169C248.256 171.69 249.125 173.284 250.791 173.646C254.558 174.443 258.397 175.24 262.237 175.964C263.903 176.254 268.394 176.689 268.611 179.079C268.684 183.498 275.928 183.571 275.638 178.862Z" fill="white"></path><path d="M260.208 165.388H20.9352C20.2107 165.388 19.5588 164.809 19.5588 164.012V5.435C19.5588 4.71058 20.1383 4.05859 20.9352 4.05859H260.208C260.932 4.05859 261.584 4.63814 261.584 5.435V164.084C261.584 164.809 260.932 165.388 260.208 165.388Z" fill="#F4F4F4"></path><path d="M260.208 164.52C240.431 164.52 220.727 164.52 200.951 164.52C163.499 164.52 126.047 164.52 88.5951 164.52C73.5273 164.52 58.4596 164.52 43.4643 164.52C38.6108 164.52 33.6848 164.52 28.8313 164.52C26.7305 164.52 23.4706 165.172 21.4423 164.52C19.921 164.013 20.5006 162.347 20.5006 160.825C20.5006 156.044 20.5006 151.335 20.5006 146.554C20.5006 129.892 20.5006 113.303 20.5006 96.6411C20.5006 66.7948 20.5006 36.9484 20.5006 7.10201C20.5006 5.36338 20.5006 5.07361 22.1667 5.00117C25.0643 4.78384 28.1069 5.00117 31.0769 5.00117C43.5368 5.00117 56.0691 5.00117 68.5289 5.00117C105.619 5.00117 142.636 5.00117 179.726 5.00117C205.515 5.00117 231.376 5.00117 257.165 5.00117C258.469 5.00117 260.063 4.56651 260.642 5.79804C261.005 6.52247 260.642 8.18865 260.642 8.98552C260.642 11.0139 260.642 12.9699 260.642 14.9983C260.642 29.849 260.642 44.6997 260.642 59.5505C260.642 92.367 260.642 125.184 260.642 158C260.642 159.087 261.439 164.23 259.918 164.665C258.759 164.955 259.266 166.693 260.425 166.403C263.25 165.607 262.453 161.84 262.453 159.594C262.453 154.233 262.453 148.872 262.453 143.439C262.453 125.691 262.453 108.015 262.453 90.2662C262.453 71.7209 262.453 53.1755 262.453 34.6302C262.453 28.1104 262.453 21.5905 262.453 14.9983C262.453 11.9557 262.816 8.76819 262.453 5.79804C262.164 3.33499 260.497 3.26255 258.542 3.26255C255.282 3.26255 252.022 3.26255 248.762 3.26255C235.505 3.26255 222.249 3.26255 208.992 3.26255C171.105 3.26255 133.146 3.26255 95.2596 3.26255C79.1053 3.26255 63.0234 3.26255 46.8691 3.26255C38.6108 3.26255 30.2077 2.90033 21.9494 3.26255C19.921 3.33499 18.762 4.05942 18.6895 6.2327C18.4722 9.78239 18.6895 13.4045 18.6895 16.9542C18.6895 32.8192 18.6895 48.6117 18.6895 64.4766C18.6895 96.6411 18.6895 128.806 18.6895 160.97C18.6895 163.144 18.11 166.041 21.0077 166.476C22.7462 166.766 24.7746 166.476 26.5132 166.476C37.6691 166.476 48.825 166.476 59.9809 166.476C97.2155 166.476 134.523 166.476 171.757 166.476C199.792 166.476 227.827 166.476 255.861 166.476C257.31 166.476 258.831 166.476 260.28 166.476C261.367 166.331 261.367 164.52 260.208 164.52Z" fill="#8E8E8E"></path><path d="M260.932 19.9239V6.01491C260.932 5.29048 260.352 4.71094 259.556 4.71094H21.5146C20.7902 4.71094 20.1382 5.29048 20.1382 6.01491V19.9239H260.932Z" fill="#D8D8D8"></path><path d="M214.497 15.0694H67.6596C66.2108 15.0694 65.0518 13.9103 65.0518 12.4615C65.0518 11.0126 66.2108 9.85352 67.6596 9.85352H214.57C216.019 9.85352 217.178 11.0126 217.178 12.4615C217.105 13.9103 215.946 15.0694 214.497 15.0694Z" fill="#F4F4F4"></path><path d="M76.3525 9.85352H67.6596C66.2108 9.85352 65.0518 11.0126 65.0518 12.4615C65.0518 13.9103 66.2108 15.0694 67.6596 15.0694H76.425V9.85352H76.3525Z" fill="#AAAAAA"></path><path d="M31.6565 16.0827C33.4969 16.0827 34.9888 14.5907 34.9888 12.7503C34.9888 10.9099 33.4969 9.41797 31.6565 9.41797C29.8161 9.41797 28.3242 10.9099 28.3242 12.7503C28.3242 14.5907 29.8161 16.0827 31.6565 16.0827Z" fill="#AAAAAA"></path><path d="M49.1871 16.0827C51.0275 16.0827 52.5194 14.5907 52.5194 12.7503C52.5194 10.9099 51.0275 9.41797 49.1871 9.41797C47.3468 9.41797 45.8549 10.9099 45.8549 12.7503C45.8549 14.5907 47.3468 16.0827 49.1871 16.0827Z" fill="#AAAAAA"></path><path d="M42.4503 15.9394H38.1038C37.5243 15.9394 37.0897 15.5048 37.0897 14.9252V10.5787C37.0897 9.99911 37.5243 9.56445 38.1038 9.56445H42.4503C43.0298 9.56445 43.4645 9.99911 43.4645 10.5787V14.9252C43.4645 15.5048 43.0298 15.9394 42.4503 15.9394Z" fill="#AAAAAA"></path><path d="M260.208 164.52C240.431 164.52 220.727 164.52 200.951 164.52C163.499 164.52 126.047 164.52 88.5951 164.52C73.5273 164.52 58.4596 164.52 43.4643 164.52C38.6108 164.52 33.6848 164.52 28.8313 164.52C26.7305 164.52 23.4706 165.172 21.4423 164.52C19.921 164.013 20.5006 162.347 20.5006 160.825C20.5006 156.044 20.5006 151.335 20.5006 146.554C20.5006 129.892 20.5006 113.303 20.5006 96.6411C20.5006 66.7948 20.5006 36.9484 20.5006 7.10201C20.5006 5.36338 20.5006 5.07361 22.1667 5.00117C25.0643 4.78384 28.1069 5.00117 31.0769 5.00117C43.5368 5.00117 56.0691 5.00117 68.5289 5.00117C105.619 5.00117 142.636 5.00117 179.726 5.00117C205.515 5.00117 231.376 5.00117 257.165 5.00117C258.469 5.00117 260.063 4.56651 260.642 5.79804C261.005 6.52247 260.642 8.18865 260.642 8.98552C260.642 11.0139 260.642 12.9699 260.642 14.9983C260.642 29.849 260.642 44.6997 260.642 59.5505C260.642 92.367 260.642 125.184 260.642 158C260.642 159.087 261.439 164.23 259.918 164.665C258.759 164.955 259.266 166.693 260.425 166.403C263.25 165.607 262.453 161.84 262.453 159.594C262.453 154.233 262.453 148.872 262.453 143.439C262.453 125.691 262.453 108.015 262.453 90.2662C262.453 71.7209 262.453 53.1755 262.453 34.6302C262.453 28.1104 262.453 21.5905 262.453 14.9983C262.453 11.9557 262.816 8.76819 262.453 5.79804C262.164 3.33499 260.497 3.26255 258.542 3.26255C255.282 3.26255 252.022 3.26255 248.762 3.26255C235.505 3.26255 222.249 3.26255 208.992 3.26255C171.105 3.26255 133.146 3.26255 95.2596 3.26255C79.1053 3.26255 63.0234 3.26255 46.8691 3.26255C38.6108 3.26255 30.2077 2.90033 21.9494 3.26255C19.921 3.33499 18.762 4.05942 18.6895 6.2327C18.4722 9.78239 18.6895 13.4045 18.6895 16.9542C18.6895 32.8192 18.6895 48.6117 18.6895 64.4766C18.6895 96.6411 18.6895 128.806 18.6895 160.97C18.6895 163.144 18.11 166.041 21.0077 166.476C22.7462 166.766 24.7746 166.476 26.5132 166.476C37.6691 166.476 48.825 166.476 59.9809 166.476C97.2155 166.476 134.523 166.476 171.757 166.476C199.792 166.476 227.827 166.476 255.861 166.476C257.31 166.476 258.831 166.476 260.28 166.476C261.367 166.331 261.367 164.52 260.208 164.52Z" fill="#8E8E8E"></path><path d="M181.175 159.884L147.055 165.173C145.027 165.462 143.578 167.491 143.651 169.809V169.954C143.723 171.837 144.737 173.431 146.258 174.011L159.225 179.154C161.616 180.096 164.151 180.386 166.687 180.023L207.109 173.866C209.21 173.576 210.731 171.33 210.514 168.867C210.296 166.911 208.992 165.318 207.326 164.955L182.407 159.884C181.972 159.812 181.61 159.812 181.175 159.884Z" fill="#F27E30"></path><path d="M195.084 163.144L182.334 119.606C181.899 118.157 180.595 117.215 179.074 117.143C177.263 117.143 174.8 117.07 172.917 117.07C171.395 117.07 170.092 118.012 169.657 119.461L156.69 162.709C156.183 164.375 157.052 166.114 158.573 166.766C164.803 169.374 180.451 174.59 193.417 166.983C194.866 166.186 195.518 164.593 195.084 163.144Z" fill="#E26A1A"></path><path d="M170.671 119.97L158.429 162.421C158.429 162.421 162.485 166.478 167.411 164.957C172.337 163.508 178.35 117.942 170.671 119.97Z" fill="#F4B72F"></path><path d="M179.147 118.447C179.147 118.809 177.698 119.099 175.959 119.099C174.221 119.099 172.772 118.809 172.772 118.447C172.772 118.085 174.221 117.795 175.959 117.795C177.698 117.795 179.147 118.085 179.147 118.447Z" fill="#CE5C0F"></path><path d="M162.34 135.615C162.34 135.615 177.046 142.28 190.447 135.615L195.156 151.118C195.156 151.118 177.408 161.695 159.008 151.118L162.34 135.615Z" fill="white"></path><path d="M211.021 168.865C210.151 164.374 206.457 164.157 202.69 163.432C200.589 162.998 198.488 162.563 196.388 162.128C195.88 162.056 195.373 161.983 194.866 161.839C195.808 162.128 195.373 162.78 195.301 161.983C195.011 159.303 193.635 156.333 192.91 153.797C191.679 149.451 190.375 145.177 189.143 140.83C187.115 133.948 185.521 126.776 183.058 120.039C182.624 118.88 182.117 117.938 181.03 117.286C179.002 116.127 174.076 116.272 171.903 116.779C169.44 117.359 168.788 119.315 168.136 121.416C165.745 129.529 163.282 137.643 160.891 145.756C159.66 149.885 158.428 154.015 157.197 158.144C156.835 159.303 156.4 160.462 156.11 161.694C156.11 161.694 155.748 163.432 155.966 163.142C155.966 163.142 155.169 163.36 154.517 163.505C153.43 163.65 152.271 163.867 151.184 164.012C149.518 164.302 147.49 164.302 145.969 164.954C141.55 166.765 141.912 173.067 145.824 175.168C148.939 176.834 152.706 177.921 155.966 179.225C159.66 180.674 162.92 181.76 166.977 181.253C175.38 180.094 183.783 178.718 192.186 177.414C196.388 176.762 200.662 176.11 204.863 175.458C208.485 174.878 211.093 173.574 211.093 169.3C211.093 168.141 209.282 168.141 209.282 169.3C209.282 174.588 201.241 174.226 197.619 174.733C191.389 175.675 185.087 176.617 178.857 177.559C174.8 178.211 170.671 178.935 166.542 179.442C160.602 180.167 154.589 176.689 149.228 174.588C148.432 174.299 147.273 174.081 146.621 173.574C143.143 170.966 144.81 167.272 148.287 166.33C151.04 165.606 154.01 165.461 156.835 165.026C157.269 164.954 157.487 164.519 157.487 164.157C158.211 158.796 160.602 153.218 162.195 148.074C164.514 140.251 166.904 132.427 169.222 124.603C170.091 121.633 170.091 119.17 173.858 118.663C176.321 118.301 180.161 118.301 181.392 120.691C181.682 121.271 181.827 122.14 181.972 122.792C184.145 130.181 186.318 137.57 188.419 144.959C190.23 151.045 191.969 157.13 193.78 163.215C193.852 163.505 194.069 163.794 194.432 163.867C196.75 164.302 198.995 164.809 201.314 165.243C204.284 165.823 208.63 165.823 209.354 169.662C209.499 170.459 211.238 170.025 211.021 168.865Z" fill="#99460D"></path><path d="M232.535 166.908L188.274 173.79C185.666 174.225 183.782 176.833 183.855 179.803V179.948C183.927 182.338 185.304 184.439 187.26 185.236L204.066 191.901C207.181 193.132 210.441 193.494 213.701 192.987L266.22 185.019C268.973 184.584 270.929 181.759 270.567 178.571C270.277 176.036 268.611 173.935 266.438 173.5L234.056 166.908C233.622 166.835 233.042 166.763 232.535 166.908Z" fill="#F27E30"></path><path d="M250.646 171.039L234.129 114.533C233.55 112.65 231.883 111.418 229.928 111.346C227.537 111.346 224.35 111.273 221.959 111.273C220.003 111.273 218.265 112.505 217.685 114.388L200.879 170.532C200.227 172.705 201.313 174.951 203.342 175.82C211.455 179.225 231.739 185.962 248.545 176.11C250.356 175.095 251.153 172.995 250.646 171.039Z" fill="#E26A1A"></path><path d="M218.554 115.983L202.4 171.981C202.4 171.981 207.688 177.269 214.208 175.386C220.728 173.502 228.696 113.375 218.554 115.983Z" fill="#F4B72F"></path><path d="M229.928 113.01C229.928 113.445 228.044 113.879 225.726 113.879C223.408 113.879 221.525 113.517 221.525 113.01C221.525 112.575 223.408 112.141 225.726 112.141C228.044 112.213 229.928 112.575 229.928 113.01Z" fill="#CE5C0F"></path><path d="M208.123 135.396C208.123 135.396 227.247 144.09 244.561 135.396L250.646 155.536C250.646 155.536 227.61 169.227 203.704 155.536L208.123 135.396Z" fill="white"></path><path d="M271.871 178.282C270.856 172.487 265.785 172.27 261.077 171.328C258.252 170.748 255.426 170.169 252.601 169.589C252.239 169.517 250.573 169.01 251.225 169.589C251.804 170.024 251.37 169.807 251.37 169.372C251.152 166.112 249.269 162.273 248.4 159.158C246.734 153.435 245.067 147.712 243.401 142.061C240.721 133.006 238.403 123.806 235.433 114.823C234.998 113.446 234.491 112.287 233.26 111.418C232.028 110.476 230.652 110.404 229.13 110.404C226.667 110.331 223.697 109.969 221.234 110.404C217.757 111.056 217.033 114.098 216.236 116.924C213.121 127.428 209.934 137.859 206.819 148.364C205.297 153.58 203.704 158.723 202.182 163.939C201.53 166.04 201.096 168.43 200.226 170.531C200.009 171.111 200.878 170.531 200.299 171.038C200.082 171.256 199.212 171.183 198.923 171.256C197.474 171.473 196.025 171.69 194.504 171.908C192.475 172.197 190.302 172.415 188.346 172.849C182.116 174.371 181.609 183.209 187.115 185.961C191.244 188.062 195.88 189.439 200.154 191.177C204.863 193.061 209.282 194.582 214.497 193.858C223.77 192.554 233.042 191.032 242.242 189.656C247.893 188.787 253.615 187.917 259.266 187.048C261.874 186.613 264.989 186.613 267.597 185.672C270.567 184.585 271.798 181.542 271.726 178.572C271.726 177.413 269.915 177.413 269.915 178.572C269.987 183.281 267.017 184.005 263.54 184.585C260.57 185.02 257.527 185.527 254.557 185.961C246.009 187.265 237.389 188.569 228.841 189.873C223.842 190.598 218.844 191.539 213.773 192.191C205.732 193.206 196.967 188.062 189.65 185.165C187.26 184.223 185.159 183.064 184.941 179.949C184.724 176.544 187.115 174.95 190.012 174.443C193.707 173.791 197.401 173.284 201.096 172.704C201.53 172.632 201.748 172.197 201.748 171.835C202.037 169.372 202.979 167.054 203.704 164.663C205.08 159.954 206.529 155.246 207.905 150.537C210.948 140.322 213.99 130.108 217.105 119.894C217.974 116.851 218.264 112.939 222.104 112.215C225.291 111.563 231.883 111.78 233.404 114.968C233.839 115.837 233.984 116.924 234.201 117.793C237.026 127.355 239.779 136.918 242.604 146.408C244.923 154.449 247.313 162.418 249.631 170.459C249.704 170.748 249.921 171.038 250.283 171.111C253.398 171.763 256.585 172.415 259.7 173.067C263.757 173.863 269.045 173.863 269.915 178.862C270.349 179.876 272.088 179.369 271.871 178.282Z" fill="#99460D"></path><path d="M84.6109 171.109C87.2188 170.457 88.4503 167.777 87.7259 165.531C83.4518 168.646 79.0329 171.399 74.3967 173.717L84.6109 171.109Z" fill="white"></path><path d="M23.688 157.057C21.8046 141.699 26.0786 126.993 32.5258 113.302L29.9904 110.983C27.4549 108.665 23.3983 109.897 22.6738 113.302L7.24393 184.151C6.51952 187.338 9.48959 190.163 12.6046 189.366L43.6093 181.47C33.3951 179.152 24.8471 168.358 23.688 157.057Z" fill="white"></path><path d="M32.5258 113.229C26.0061 126.92 21.7321 141.698 23.688 156.984C24.8471 168.285 33.3951 179.151 43.6817 181.397L74.3967 173.573C79.0329 171.255 83.5242 168.502 87.7258 165.387C87.5085 164.663 87.1463 164.011 86.4943 163.504L32.5258 113.229Z" fill="#EAEAEA"></path><path d="M20.0659 112.504C16.2265 130.325 12.3147 148.073 8.47533 165.894C7.5336 170.241 6.59187 174.515 5.65014 178.861C5.21549 180.817 4.41864 183.063 4.41864 185.164C4.41864 190.452 9.48951 192.915 14.0533 191.901C16.8785 191.249 19.7037 190.452 22.5289 189.728C42.595 184.657 62.6612 179.586 82.7273 174.442C85.6249 173.718 88.3777 172.993 89.899 170.096C91.71 166.474 89.9714 163.141 87.2911 160.678C80.9887 154.738 74.6139 148.87 68.3116 142.93C59.7635 134.961 51.2155 126.992 42.595 119.024C39.7698 116.416 36.9446 113.735 34.1194 111.127C32.0911 109.244 30.2801 107.215 27.31 107.143C23.7604 106.926 21.0801 109.244 20.0659 112.504C18.9793 115.836 24.195 117.285 25.2816 113.953C26.4407 110.475 29.3383 114.098 30.5698 115.257C33.1777 117.72 35.858 120.183 38.4659 122.646C46.1446 129.818 53.8234 136.989 61.5021 144.161C68.0218 150.246 74.5415 156.332 81.0612 162.417C82.0753 163.359 83.669 164.445 84.4659 165.604C86.3494 168.43 82.8722 168.792 81.0612 169.299C62.5163 174.008 44.0438 178.716 25.499 183.425C22.0218 184.294 18.6171 185.164 15.1399 186.033C13.4738 186.468 9.92415 188.061 9.77927 185.019C9.70683 183.57 10.5037 181.614 10.7934 180.238C11.6627 176.398 12.4596 172.559 13.3289 168.719C17.3131 150.536 21.2249 132.353 25.2092 114.098C26.0785 110.548 20.7903 109.027 20.0659 112.504Z" fill="#DB2E2E"></path><path d="M26.5857 135.976L38.6833 155.391C39.5526 156.767 41.7259 155.971 41.4361 154.377L38.6833 132.282C38.5385 131.34 37.5243 130.76 36.5826 131.123L27.2377 133.803C26.4408 134.165 26.0786 135.179 26.5857 135.976Z" fill="#DB2E2E"></path><path d="M47.4407 164.457C47.9121 161.574 45.9576 158.856 43.0753 158.384C40.193 157.913 37.4742 159.867 37.0029 162.75C36.5315 165.632 38.4859 168.351 41.3683 168.822C44.2506 169.294 46.9693 167.339 47.4407 164.457Z" fill="#DB2E2E"></path><path d="M87.9431 159.954C72.0786 145.176 56.2864 130.397 40.4219 115.692C36.2203 111.78 30.7872 104.101 24.1227 106.709C21.6597 107.65 19.9935 109.824 19.1967 112.287C17.3857 117.648 16.7337 123.66 15.5022 129.166C13.1841 139.96 10.7935 150.681 8.47542 161.475C7.38881 166.329 6.37464 171.183 5.28802 176.036C4.49117 179.514 2.75259 183.643 3.76676 187.265C5.50535 194.002 12.7494 193.205 17.9652 191.829C28.4691 189.148 38.9006 186.468 49.4045 183.788C60.9227 180.89 72.5132 178.21 83.9589 175.022C91.6376 172.849 93.7384 165.749 87.9431 159.954C87.1463 159.157 85.8423 160.389 86.6392 161.258C90.8408 165.46 90.4786 170.965 84.3935 172.994C80.6266 174.225 76.5699 175.022 72.7305 175.964C64.3274 178.065 55.9242 180.238 47.5211 182.339C39.1179 184.44 30.7148 186.541 22.3116 188.714C18.9069 189.583 14.9951 191.249 11.4455 191.032C5.86755 190.742 4.92582 186.033 5.86755 181.47C9.34472 165.097 13.0392 148.725 16.6612 132.353C17.603 128.152 18.4723 123.95 19.414 119.748C20.2109 116.054 20.4282 110.621 24.2675 108.592C28.7589 106.202 32.4534 110.621 35.4235 113.446C38.3211 116.126 41.2187 118.807 44.0439 121.487C58.2423 134.744 72.4408 148.001 86.7116 161.186C87.5085 162.055 88.8124 160.751 87.9431 159.954Z" fill="#B51616"></path></svg>