<svg width="24" height="24" fill="#181E45" xmlns="http://www.w3.org/2000/svg"><path fill-rule="evenodd" clip-rule="evenodd" d="M17.09 5.358h-1.726V4.63c0-.236-.273-.343-.523-.343H13.5c-.318-.857-1.114-1.286-2.023-1.286-.899-.031-1.717.488-2.022 1.286H8.136c-.25 0-.5.107-.5.343v.728H5.91C4.886 5.368 4.05 6.13 4 7.094v12.278C4 20.314 4.91 21 5.91 21h11.18c1 0 1.91-.686 1.91-1.628V7.094c-.048-.964-.886-1.725-1.91-1.736zm-8.545-.214h1.25a.489.489 0 00.432-.386c.135-.552.65-.949 1.25-.964.596.017 1.102.415 1.227.964a.49.49 0 00.455.386h1.295v1.714H8.546V5.144zm8.546 14.999c.5 0 1-.3 1-.771V7.094c-.047-.49-.478-.87-1-.879h-1.727v1.093a.493.493 0 01-.523.407H8.136a.47.47 0 01-.5-.407V6.215H5.91c-.522.01-.954.388-1 .879v12.278c0 .471.5.771 1 .771h11.182z"></path><path d="M15.364 5.358h-.2v.2h.2v-.2zm1.727 0l.002-.2h-.002v.2zM13.5 4.287l-.188.07.049.13h.139v-.2zm-2.023-1.286l-.007.2h.007v-.2zM9.455 4.287v.2h.137l.05-.128-.187-.072zM7.636 5.358v.2h.2v-.2h-.2zm-1.727 0v-.2h-.002l.002.2zM4 7.094l-.2-.01v.01H4zm15 0h.2v-.01l-.2.01zm-9.205-1.95v.2h.012l.011-.001-.023-.199zm-1.25 0v-.2h-.2v.2h.2zm1.682-.386l-.194-.047-.002.01.196.037zm1.25-.964l.006-.2h-.01l.004.2zm1.227.964l.197-.038-.002-.006-.194.044zm.455.386l-.014.2h.014v-.2zm1.295 0h.2v-.2h-.2v.2zm0 1.714v.2h.2v-.2h-.2zm-5.909 0h-.2v.2h.2v-.2zm9.546 12.514h.2v-.2h-.2v.2zm0 0h-.2v.2h.2v-.2zm0-12.278h.2v-.01l-.001-.009-.2.019zm-1-.879l.003-.2h-.003v.2zm-1.727 0v-.2h-.2v.2h.2zm0 1.093l.197.029.003-.014v-.015h-.2zm-.523.407l.01-.2h-.01v.2zm-6.705 0v-.2h-.01l.01.2zm-.5-.407h-.2v.01l.001.01.2-.02zm0-1.093h.2v-.2h-.2v.2zm-1.727 0v-.2h-.003l.003.2zm-1 .879l-.2-.019v.019h.2zm10.455-1.536h1.727v-.4h-1.727v.4zm-.2-.928v.728h.4V4.63h-.4zm-.323-.143c.1 0 .195.022.257.057.056.032.066.06.066.086h.4a.494.494 0 00-.27-.434.94.94 0 00-.453-.109v.4zm-1.341 0h1.34v-.4H13.5v.4zm-2.023-1.286c.846 0 1.553.395 1.835 1.156l.376-.14c-.354-.953-1.239-1.416-2.21-1.416v.4zM9.641 4.36c.273-.713 1.01-1.187 1.83-1.158l.013-.4c-.978-.034-1.878.531-2.216 1.414l.373.144zm-1.505.128h1.319v-.4H8.136v.4zm-.3.143c0-.033.013-.06.06-.088a.487.487 0 01.24-.055v-.4a.881.881 0 00-.446.112.494.494 0 00-.254.43h.4zm0 .728V4.63h-.4v.728h.4zm-1.927.2h1.727v-.4H5.91v.4zM4.2 7.104c.043-.848.784-1.536 1.712-1.546l-.004-.4c-1.119.012-2.053.846-2.107 1.926l.4.02zM4.2 19.372V7.094h-.4v12.278h.4zM5.91 20.8c-.93 0-1.71-.631-1.71-1.428h-.4c0 1.088 1.037 1.828 2.11 1.828v-.4zm11.18 0H5.91v.4h11.18v-.4zm1.71-1.428c0 .797-.78 1.428-1.71 1.428v.4c1.073 0 2.11-.74 2.11-1.828h-.4zm0-12.278v12.278h.4V7.094h-.4zm-1.711-1.536c.928.01 1.669.698 1.711 1.546l.4-.02c-.054-1.08-.988-1.914-2.107-1.926l-.004.4zm-7.294-.614h-1.25v.4h1.25v-.4zm.236-.223a.289.289 0 01-.258.224l.045.398a.688.688 0 00.606-.548l-.393-.074zm1.441-1.127c-.684.017-1.281.47-1.44 1.117l.39.095c.111-.458.542-.799 1.06-.812l-.01-.4zm1.428 1.12c-.148-.645-.738-1.1-1.417-1.12l-.011.4c.511.015.934.356 1.037.809l.39-.089zm.273.23a.29.29 0 01-.272-.223l-.393.075a.69.69 0 00.637.548l.028-.4zm1.281 0H13.16v.4h1.295v-.4zm.2 1.914V5.144h-.4v1.714h.4zm-6.109.2h5.91v-.4h-5.91v.4zm-.2-1.914v1.714h.4V5.144h-.4zm9.546 14.228c0 .157-.081.294-.229.4-.15.106-.358.171-.571.171v.4c.287 0 .579-.085.804-.246.227-.163.396-.41.396-.725h-.4zm.2.2v-.4.4zm-.2-12.478v12.278h.4V7.094h-.4zm-.804-.679c.43.008.769.318.805.698l.398-.038c-.057-.601-.581-1.049-1.196-1.06l-.007.4zm-1.723 0h1.727v-.4h-1.727v.4zm.2.893V6.215h-.4v1.093h.4zm-.733.607a.693.693 0 00.73-.578l-.395-.057c-.02.132-.148.244-.315.236l-.02.4zm-6.695 0h6.705v-.4H8.136v.4zm-.699-.587c.036.356.358.604.71.587l-.02-.4c-.16.008-.28-.103-.292-.227l-.398.04zm0-1.113v1.093h.4V6.215h-.4zm-1.528.2h1.727v-.4H5.91v.4zm-.8.698c.035-.38.373-.69.803-.698l-.006-.4c-.615.011-1.14.459-1.196 1.06l.398.038zm0 12.259V7.094h-.4v12.278h.4zm.8.571c-.213 0-.421-.065-.571-.172-.148-.105-.229-.242-.229-.4h-.4c0 .315.169.563.396.726.225.16.517.246.804.246v-.4zm11.182 0H5.909v.4h11.182v-.4z"></path><path d="M9.855 12.478a.558.558 0 00-.66-.019l-1.51 1.154-.637-.53a.558.558 0 00-.66-.019c-.184.154-.184.395 0 .549l.966.794a.48.48 0 00.33.113.534.534 0 00.33-.113l1.84-1.4c.183-.133.195-.36.028-.507a.39.39 0 00-.027-.022zM16.306 13.8h-5.112c-.245 0-.444.161-.444.36 0 .199.199.36.444.36h5.112c.245 0 .444-.161.444-.36 0-.199-.199-.36-.444-.36zM9.855 9.598a.558.558 0 00-.66-.019l-1.51 1.154-.637-.53a.558.558 0 00-.66-.018c-.184.153-.184.394 0 .548l.966.794a.48.48 0 00.33.113.534.534 0 00.33-.113l1.84-1.4c.183-.133.195-.36.028-.507a.365.365 0 00-.027-.022zM16.306 10.2h-5.112c-.245 0-.444.161-.444.36 0 .199.199.36.444.36h5.112c.245 0 .444-.161.444-.36 0-.199-.199-.36-.444-.36zM9.855 16.078a.558.558 0 00-.66-.02l-1.51 1.154-.637-.53a.558.558 0 00-.66-.018c-.184.153-.184.395 0 .548l.966.794a.48.48 0 00.33.114.534.534 0 00.33-.114l1.84-1.399c.183-.134.195-.361.028-.507a.39.39 0 00-.027-.022zM16.306 16.68h-5.112c-.245 0-.444.16-.444.36 0 .198.199.36.444.36h5.112c.245 0 .444-.162.444-.36 0-.2-.199-.36-.444-.36z"></path></svg>