<svg width="24" height="24" fill="#181E45" xmlns="http://www.w3.org/2000/svg"><path fill-rule="evenodd" clip-rule="evenodd" d="M18.861 12.163L16.793 8.95a.862.862 0 00-.727-.398H6.94a.862.862 0 00-.726.396l-2.075 3.214a.877.877 0 00.08 1.054l6.634 7.493a.865.865 0 001.293 0l6.635-7.493a.877.877 0 00.08-1.053zm-3.214-2.864l-1.74 2.706-1.74-2.706h3.48zm-5.873 3.02h3.451L11.5 9.636 9.774 12.32zm1.058-3.02l-1.736 2.698L7.361 9.3h3.471zm-2.413 3.02L6.675 9.606 4.923 12.32H8.42zm-3.339.747h3.737l1.976 6.452-5.713-6.452zm4.514 0l1.906 6.22 1.905-6.22h-3.81zm2.612 6.452l1.976-6.452h3.737l-5.713 6.452zm4.127-9.91l-1.743 2.71h3.487l-1.745-2.71z"></path><path d="M16.793 8.95l-.168.108.168-.108zm2.068 3.213l-.168.108.168-.108zM6.214 8.948l.168.109-.168-.109zm-2.075 3.214l.168.108-.168-.108zm.08 1.054l.15-.132-.15.132zm6.634 7.493l-.15.132.15-.132zm1.293 0l.15.132-.15-.132zm6.635-7.493l.15.132-.15-.132zm-4.873-1.211l-.169.108.169.261.168-.261-.168-.108zm1.739-2.706l.168.108.198-.308h-.366v.2zm-3.48 0v-.2h-.366l.198.308.168-.108zm1.058 3.02v.2h.367l-.199-.308-.168.108zm-3.45 0l-.17-.108-.197.308h.366v-.2zM11.5 9.636l.168-.108-.168-.262-.169.262.169.108zm-2.404 2.361l-.168.108.168.262.169-.262-.169-.108zM10.832 9.3l.168.108.199-.308h-.367v.2zm-3.47 0v-.2h-.367l.198.308.168-.108zm-.687.307l.168-.108-.168-.26-.168.26.168.108zm1.744 2.713v.2h.366l-.198-.308-.168.108zm-3.496 0l-.168-.109-.199.309h.367v-.2zm3.894.747l.192-.059-.044-.141h-.148v.2zm-3.737 0v-.2h-.444l.295.332.15-.132zm5.713 6.452l-.15.133.342-.191-.192.058zm.707-.231l-.192.059.192.624.19-.624-.19-.06zm-1.906-6.221v-.2h-.27l.08.258.19-.058zm3.81 0l.192.058.08-.258h-.271v.2zm.778 0v-.2h-.148l-.043.141.19.059zm-1.976 6.452l-.191-.058.34.191-.15-.133zm5.713-6.452l.15.133.294-.333h-.444v.2zm-3.329-.747l-.168-.108-.198.308h.366v-.2zm1.742-2.71l.169-.109-.169-.261-.168.261.168.108zm1.745 2.71v.2h.367l-.198-.308-.169.108zm-1.452-3.261l2.068 3.213.337-.217-2.069-3.213-.336.217zm-.559-.306c.227 0 .435.114.559.306l.336-.217a1.062 1.062 0 00-.895-.49v.4zm-9.126 0h9.126v-.4H6.94v.4zm-.558.305a.662.662 0 01.558-.305v-.4c-.362 0-.697.183-.894.488l.336.217zM4.307 12.27l2.075-3.213-.336-.217-2.075 3.213.336.217zm.062.814a.677.677 0 01-.062-.813l-.336-.218c-.26.404-.22.936.098 1.296l.3-.265zm6.634 7.492l-6.634-7.492-.3.265 6.634 7.492.3-.265zm.497.224a.665.665 0 01-.497-.224l-.3.265c.202.228.492.36.797.36v-.4zm0 0v.4-.4zm.497-.224a.665.665 0 01-.497.224v.4c.304 0 .594-.13.796-.359l-.3-.265zm6.634-7.493l-6.634 7.493.3.265 6.634-7.493-.3-.265zm.062-.812a.678.678 0 01-.062.812l.3.265c.318-.359.358-.89.099-1.294l-.337.217zm-4.617-.158l1.74-2.706-.337-.216-1.74 2.705.337.217zm-2.077-2.706l1.74 2.706.337-.216-1.74-2.706-.337.216zm3.648-.308h-3.48v.4h3.48v-.4zm-2.422 3.02h-3.45v.4h3.45v-.4zm-1.894-2.375l1.726 2.683.336-.216-1.725-2.683-.337.216zm-1.389 2.683l1.726-2.683-.337-.216-1.725 2.683.336.216zm-.677-.322L11 9.407l-.336-.216-1.736 2.698.337.216zM7.193 9.407l1.735 2.698.337-.216L7.53 9.191l-.337.216zm3.64-.308H7.36v.4h3.471v-.4zm-4.327.616l1.745 2.712.336-.216-1.744-2.713-.337.217zm-1.415 2.712l1.752-2.712-.336-.217-1.752 2.712.336.217zm3.328-.308H4.923v.4H8.42v-.4zm.398.747H5.08v.4h3.737v-.4zm2.168 6.594l-1.976-6.453-.383.117 1.976 6.453.383-.117zM4.93 13.198l5.713 6.453.3-.265-5.714-6.453-.3.265zm6.76 6.03l-1.905-6.22-.383.117 1.905 6.22.383-.117zm1.523-6.22l-1.906 6.22.383.117 1.905-6.22-.382-.118zm-3.62.258h3.81v-.4h-3.81v.4zm4.397-.259l-1.976 6.453.382.117 1.976-6.452-.382-.118zm3.928-.141h-3.737v.4h3.737v-.4zm-5.564 6.785l5.714-6.452-.3-.266-5.713 6.453.3.265zm2.403-7.224l1.743-2.71-.337-.217-1.742 2.71.336.217zm3.32-.308H14.59v.4h3.487v-.4zm-1.914-2.402l1.745 2.71.337-.216L16.5 9.5l-.337.216z"></path><path d="M3.128 12.252h-.756c-.205 0-.372.15-.372.336 0 .186.167.337.372.337h.756c.205 0 .372-.15.372-.337 0-.185-.167-.336-.372-.336zM20.628 12.252h-.756c-.206 0-.372.15-.372.336 0 .186.166.337.372.337h.756c.206 0 .372-.15.372-.337 0-.185-.166-.336-.372-.336zM18.223 5.803a.373.373 0 00-.532 0l-1.248 1.26a.382.382 0 000 .536.373.373 0 00.532 0l1.248-1.26a.382.382 0 000-.537zM6.557 7.063l-1.248-1.26a.373.373 0 00-.532 0 .382.382 0 000 .536l1.248 1.26a.373.373 0 00.532 0 .382.382 0 000-.536zM11.5 3c-.184 0-.333.168-.333.375v2.446c0 .207.15.375.333.375.184 0 .334-.168.334-.375V3.375c0-.207-.15-.375-.334-.375zM11.736 6.8A.334.334 0 0011.5 6.7a.334.334 0 00-.333.337.333.333 0 10.667 0 .34.34 0 00-.098-.238z"></path></svg>