<svg width="24" height="24" fill="none" xmlns="http://www.w3.org/2000/svg"><path d="M15.017 17.648l2.45-8.168h4.085l-6.535 8.168zM8.983 17.648L2.448 9.48h4.084l2.451 8.168zM6.49 9.338h0s0 0 0 0l.191-.058-.191.057zM17.56 3.427l3.58 3.579h-3.736L16.06 3.417h1.478c.009 0 .017.004.023.01zM7.941 3.417L6.595 7.006H2.861l3.579-3.58a.033.033 0 01.023-.009H7.94zM9.116 9.48h5.769L12 19.095 9.116 9.48zM14.762 7.006H9.238l1.346-3.589h2.832l1.346 3.589zm.101.27s0 0 0 0h0z" stroke="#181E45" stroke-width="1.2"></path></svg>