<svg width="24" height="24" fill="#181E45" xmlns="http://www.w3.org/2000/svg"><path d="M15.495 14.435a.391.391 0 00-.39.392v2.705c0 1.08-.875 1.96-1.95 1.96H8.944a.391.391 0 00-.39.391v.78l-.932-.936a.39.39 0 00-.357-.236H4.73c-1.075 0-1.95-.879-1.95-1.96v-6.036c0-1.08.875-1.96 1.95-1.96h3.94a.391.391 0 000-.784H4.73A2.74 2.74 0 002 11.496v6.037a2.74 2.74 0 002.73 2.743h2.335l1.602 1.61a.389.389 0 00.666-.277v-1.333h3.822a2.74 2.74 0 002.73-2.743v-2.705a.391.391 0 00-.39-.392z" class="faqIcon_svg__stroke-color"></path><path fill-rule="evenodd" clip-rule="evenodd" d="M15.327 2h.99C19.45 2 22 4.546 22 7.675c0 .907-.207 1.773-.617 2.575a5.731 5.731 0 01-1.494 1.84v2.258a.39.39 0 01-.668.277l-1.462-1.46c-.469.123-.953.185-1.442.185h-.99c-3.134 0-5.683-2.546-5.683-5.675 0-3.13 2.55-5.675 5.683-5.675zm3.78 9.899a.39.39 0 01.155-.312 4.856 4.856 0 001.956-3.912 4.903 4.903 0 00-4.901-4.894h-.99a4.903 4.903 0 00-4.901 4.894 4.903 4.903 0 004.901 4.894h.99c.49 0 .976-.072 1.441-.215a.391.391 0 01.392.097l.957.955V11.9z"></path><path d="M21.383 10.25l-.223-.114.223.114zm-1.494 1.84l-.157-.195-.093.075v.12h.25zm-.242 2.62l-.095-.232.095.231zm-.426-.085l-.176.177.176-.177zm-1.462-1.46l.177-.176-.102-.102-.138.037.063.242zm1.503-1.578l-.15-.2.15.2zm-1.504.767l.074.24-.074-.24zm.392.097l.176-.177-.176.177zm.957.955l-.177.177.427.426v-.603h-.25zM16.317 1.75h-.99v.5h.99v-.5zm5.933 5.925c0-3.268-2.662-5.925-5.933-5.925v.5c2.996 0 5.433 2.434 5.433 5.425h.5zm-.645 2.689a5.858 5.858 0 00.645-2.689h-.5c0 .867-.198 1.695-.59 2.462l.445.227zm-1.56 1.92a5.983 5.983 0 001.56-1.92l-.445-.228a5.482 5.482 0 01-1.428 1.759l.314.389zm.094 2.064V12.09h-.5v2.26h.5zm-.396.592a.64.64 0 00.396-.592h-.5a.14.14 0 01-.087.13l.19.462zm-.245.049a.642.642 0 00.245-.049l-.191-.462a.14.14 0 01-.054.01v.5zm-.453-.187a.642.642 0 00.453.187v-.5a.141.141 0 01-.1-.041l-.353.354zm-1.462-1.46l1.462 1.46.353-.354-1.462-1.46-.353.354zm-1.266.258c.51 0 1.015-.064 1.505-.192l-.126-.484a5.45 5.45 0 01-1.38.176v.5zm-.99 0h.99v-.5h-.99v.5zM9.394 7.675c0 3.268 2.662 5.925 5.933 5.925v-.5c-2.996 0-5.433-2.434-5.433-5.425h-.5zm5.933-5.925c-3.271 0-5.933 2.657-5.933 5.925h.5c0-2.99 2.437-5.425 5.433-5.425v-.5zm3.785 9.637a.64.64 0 00-.255.512h.5a.14.14 0 01.056-.112l-.301-.4zm1.856-3.712a4.606 4.606 0 01-1.856 3.712l.3.4a5.106 5.106 0 002.056-4.112h-.5zm-4.651-4.644a4.653 4.653 0 014.651 4.644h.5a5.153 5.153 0 00-5.151-5.144v.5zm-.99 0h.99v-.5h-.99v.5zm-4.651 4.644a4.653 4.653 0 014.651-4.644v-.5a5.153 5.153 0 00-5.151 5.144h.5zm4.651 4.644a4.653 4.653 0 01-4.651-4.644h-.5a5.153 5.153 0 005.151 5.144v-.5zm.99 0h-.99v.5h.99v-.5zm1.368-.204a4.659 4.659 0 01-1.368.204v.5a5.16 5.16 0 001.515-.226l-.147-.478zm.188-.028a.644.644 0 00-.188.028l.147.478a.142.142 0 01.041-.006v-.5zm.453.187a.641.641 0 00-.453-.187v.5c.037 0 .073.014.1.041l.353-.354zm.957.955l-.957-.955-.353.354.957.955.353-.354zm-.426-1.33v1.507h.5V11.9h-.5z"></path><path d="M17.538 6.222a1.664 1.664 0 00-1.536-1.543 1.639 1.639 0 00-1.246.444 1.673 1.673 0 00-.527 1.216.392.392 0 10.783 0c0-.246.098-.474.277-.642a.865.865 0 01.66-.234c.43.03.778.38.808.813a.873.873 0 01-.68.92.743.743 0 00-.583.728v.944a.392.392 0 10.783 0v-.912a1.654 1.654 0 001.26-1.734zM16.155 10.137a.385.385 0 00-.54 0 .385.385 0 000 .541.385.385 0 00.54 0 .385.385 0 000-.54z" class="faqIcon_svg__stroke-color"></path><path d="M12.691 14.102H4.43a.387.387 0 00-.392.382c0 .211.175.382.392.382h8.261a.387.387 0 00.392-.382.387.387 0 00-.392-.382z"></path><path d="M12.97 16.38a.385.385 0 00-.54 0 .385.385 0 000 .54.385.385 0 00.54 0 .384.384 0 000-.54z" class="faqIcon_svg__stroke-color"></path><path d="M11.162 16.267H4.43a.387.387 0 00-.392.383c0 .21.176.382.392.382h6.732a.387.387 0 00.392-.382.387.387 0 00-.392-.383zM10.271 11.936H4.557a.387.387 0 00-.391.383c0 .21.175.382.391.382h5.714a.387.387 0 00.392-.383.387.387 0 00-.392-.382z"></path></svg>