<svg width="24" height="24" fill="none" xmlns="http://www.w3.org/2000/svg"><path fill-rule="evenodd" clip-rule="evenodd" d="M13.333 1.757a3.375 3.375 0 111.292 6.493H11.25V4.875a3.375 3.375 0 012.083-3.118zm1.658 1.279a1.875 1.875 0 00-2.241 1.839V6.75h1.875a1.875 1.875 0 00.366-3.714z" fill="#181E45"></path><path fill-rule="evenodd" clip-rule="evenodd" d="M10.092 3.143a1.875 1.875 0 10-.717 3.607h1.875V4.875a1.875 1.875 0 00-1.158-1.732zM8.717 1.565a3.375 3.375 0 014.033 3.31V8.25H9.375a3.375 3.375 0 01-.658-6.685z" fill="#181E45"></path><path fill-rule="evenodd" clip-rule="evenodd" d="M4.5 8.25a.75.75 0 00-.75.75v2.25c0 .414.336.75.75.75h15a.75.75 0 00.75-.75V9a.75.75 0 00-.75-.75h-15zM2.25 9A2.25 2.25 0 014.5 6.75h15A2.25 2.25 0 0121.75 9v2.25a2.25 2.25 0 01-2.25 2.25h-15a2.25 2.25 0 01-2.25-2.25V9z" fill="#181E45"></path><path fill-rule="evenodd" clip-rule="evenodd" d="M4.5 12a.75.75 0 01.75.75v6.75a1.5 1.5 0 001.5 1.5h10.5a1.5 1.5 0 001.5-1.5v-6.75a.75.75 0 011.5 0v6.75a3 3 0 01-3 3H6.75a3 3 0 01-3-3v-6.75A.75.75 0 014.5 12z" fill="#181E45"></path><path fill-rule="evenodd" clip-rule="evenodd" d="M12 6.75a.75.75 0 01.75.75v14.25a.75.75 0 01-1.5 0V7.5a.75.75 0 01.75-.75z" fill="#181E45"></path></svg>