<svg width="18" height="18" viewBox="0 0 18 18" fill="none" xmlns="http://www.w3.org/2000/svg"><ellipse cx="9" cy="9" rx="7" ry="7" fill="white"></ellipse><path d="M17.9291 8.73636L16.8647 6.89248V4.76367C16.8647 4.57527 16.7642 4.40114 16.601 4.30695L14.7572 3.24256L13.6928 1.39876C13.5986 1.2356 13.4245 1.13509 13.2361 1.13509H11.1073L9.2634 0.0706245C9.10028 -0.0235239 8.89929 -0.0235591 8.73609 0.0706245L6.89225 1.13505H4.76344C4.57503 1.13505 4.40091 1.23556 4.30672 1.39876L3.24237 3.24256L1.39853 4.30695C1.23533 4.40114 1.13482 4.57523 1.13482 4.76367V6.89248L0.0703936 8.73636C-0.02379 8.89952 -0.02379 9.10047 0.0703936 9.26363L1.13478 11.1075V13.2363C1.13478 13.4247 1.2353 13.5989 1.39849 13.693L3.24233 14.7574L4.30672 16.6012C4.40091 16.7644 4.575 16.8649 4.76344 16.8649H6.89229L8.73613 17.9294C8.81769 17.9764 8.90875 18 8.9998 18C9.09086 18 9.18187 17.9764 9.26344 17.9294L11.1073 16.8649H13.2361C13.4245 16.8649 13.5986 16.7644 13.6928 16.6013L14.7572 14.7575L16.601 13.6931C16.7642 13.5989 16.8647 13.4248 16.8647 13.2364V11.1075L17.9291 9.26367C18.0233 9.10047 18.0233 8.89952 17.9291 8.73636V8.73636ZM6.42046 10.6945C6.42046 10.9269 6.26834 11.1319 6.04594 11.1992C5.82185 11.267 5.58237 11.179 5.45433 10.987L4.16107 9.04714V10.6945C4.16107 10.9858 3.92496 11.2219 3.63373 11.2219C3.34249 11.2219 3.10638 10.9858 3.10638 10.6945V7.30546C3.10638 7.07308 3.2585 6.86812 3.4809 6.80076C3.70334 6.73347 3.94359 6.8196 4.07251 7.01296L5.36577 8.95285V7.30546C5.36577 7.01423 5.60188 6.77812 5.89311 6.77812C6.18435 6.77812 6.42046 7.01423 6.42046 7.30546V10.6945ZM8.71736 8.47265C9.00859 8.47265 9.2447 8.70876 9.2447 9C9.2447 9.29123 9.00859 9.52734 8.71736 9.52734H8.11502V10.1672H9.28221C9.57345 10.1672 9.80955 10.4033 9.80955 10.6945C9.80955 10.9858 9.57345 11.2219 9.28221 11.2219H7.58768C7.29644 11.2219 7.06034 10.9858 7.06034 10.6945V7.30546C7.06034 7.01423 7.29644 6.77812 7.58768 6.77812H9.28221C9.57345 6.77812 9.80955 7.01423 9.80955 7.30546C9.80955 7.5967 9.57345 7.83281 9.28221 7.83281H8.11502V8.47265H8.71736ZM15.1598 7.43336L14.3125 10.8224C14.2557 11.0499 14.0554 11.2125 13.8212 11.2215C13.8144 11.2218 13.8075 11.2219 13.8008 11.2219C13.5746 11.2219 13.3726 11.0773 13.3006 10.8613L12.6712 8.97307L12.0418 10.8613C11.9677 11.0837 11.7556 11.2299 11.5213 11.2215C11.287 11.2125 11.0868 11.0499 11.0299 10.8224L10.1827 7.43336C10.112 7.15081 10.2838 6.8645 10.5664 6.79391C10.849 6.72314 11.1352 6.89502 11.2059 7.1776L11.6139 8.8098L12.1709 7.13875C12.2427 6.92342 12.4442 6.77816 12.6712 6.77816C12.8981 6.77816 13.0997 6.92342 13.1714 7.13875L13.7285 8.8098L14.1365 7.1776C14.2071 6.89505 14.4935 6.72321 14.776 6.79391C15.0586 6.8645 15.2304 7.15078 15.1598 7.43336V7.43336Z" fill="#00c6ff"></path></svg>