<svg width="24" height="24" fill="none" xmlns="http://www.w3.org/2000/svg"><path fill-rule="evenodd" clip-rule="evenodd" d="M15.974 7.795h2.649c.208 0 .377.17.377.38v9.445c0 .21-.169.38-.377.38H5.377A.379.379 0 015 17.62v-7.278c0-.21.169-.38.377-.38h2.65c.208 0 .377.17.377.38v3.232h1.894V6.38c0-.21.17-.38.377-.38h2.65c.208 0 .377.17.377.38v4.38h1.895V8.174c0-.21.168-.38.377-.38zM5.754 17.24H7.65v-6.518H5.754v6.518zm4.544 0H8.404v-2.906h1.894v2.906zm2.65 0V6.76h-1.895v10.48h1.894zm2.649 0h-1.895v-5.72h1.895v5.72zm.754 0h1.895V8.555H16.35V17.24z" fill="#181E45"></path><path d="M19 8.175h-.2.2zM8.404 13.574h-.2v.2h.2v-.2zm1.894 0v.2h.2v-.2h-.2zm3.404-2.815h-.2v.2h.2v-.2zm1.895 0v.2h.2v-.2h-.2zm-7.948 6.48v.2h.2v-.2h-.2zm-1.895 0h-.2v.2h.2v-.2zm1.895-6.517h.2v-.2h-.2v.2zm-1.895 0v-.2h-.2v.2h.2zm2.65 6.518h-.2v.2h.2v-.2zm1.894 0v.2h.2v-.2h-.2zm-1.894-2.906v-.2h-.2v.2h.2zm1.894 0h.2v-.2h-.2v.2zm2.65 2.906v.2h.2v-.2h-.2zm0-10.48h.2v-.2h-.2v.2zm-1.895 0v-.2h-.2v.2h.2zm0 10.48h-.2v.2h.2v-.2zm2.649 0h-.2v.2h.2v-.2zm1.895 0v.2h.2v-.2h-.2zm-1.895-5.72v-.2h-.2v.2h.2zm1.895 0h.2v-.2h-.2v.2zm.754 5.72h-.2v.2h.2v-.2zm1.895 0v.2h.2v-.2h-.2zm0-8.685h.2v-.2h-.2v.2zm-1.895 0v-.2h-.2v.2h.2zm2.272-.96h-2.65v.4h2.65v-.4zm.577.58a.579.579 0 00-.577-.58v.4c.096 0 .177.079.177.18h.4zm0 9.445V8.175h-.4v9.445h.4zm-.577.58c.32 0 .577-.261.577-.58h-.4c0 .1-.08.18-.177.18v.4zm-2.65 0h2.65v-.4h-2.65v.4zm-2.648 0h2.649v-.4h-2.65v.4zm-2.65 0h2.65v-.4h-2.65v.4zm-2.649 0h2.65v-.4h-2.65v.4zm-2.649 0h2.65v-.4h-2.65v.4zm-.577-.58c0 .319.257.58.577.58v-.4a.179.179 0 01-.177-.18h-.4zm0-7.278v7.278h.4v-7.278h-.4zm.577-.58a.579.579 0 00-.577.58h.4c0-.1.08-.18.177-.18v-.4zm2.65 0h-2.65v.4h2.65v-.4zm.577.58a.579.579 0 00-.578-.58v.4c.097 0 .178.08.178.18h.4zm0 3.232v-3.232h-.4v3.232h.4zm1.694-.2H8.404v.4h1.894v-.4zm-.2-6.994v7.194h.4V6.38h-.4zm.577-.58a.579.579 0 00-.577.58h.4c0-.1.081-.18.177-.18v-.4zm2.65 0h-2.65v.4h2.65v-.4zm.577.58a.579.579 0 00-.577-.58v.4c.096 0 .177.08.177.18h.4zm0 4.38V6.38h-.4v4.38h.4zm1.695-.2h-1.895v.4h1.895v-.4zm-.2-2.385v2.584h.4V8.175h-.4zm.577-.58a.579.579 0 00-.578.58h.4c0-.101.081-.18.178-.18v-.4zM7.649 17.04H5.754v.4H7.65v-.4zm-.2-6.318v6.518h.4v-6.518h-.4zm-1.695.2H7.65v-.4H5.754v.4zm.2 6.318v-6.518h-.4v6.518h.4zm2.45.2h1.894v-.4H8.404v.4zm-.2-3.106v2.906h.4v-2.906h-.4zm2.094-.2H8.404v.4h1.894v-.4zm.2 3.106v-2.906h-.4v2.906h.4zm2.25-6.1v6.1h.4v-6.1h-.4zm0-4.38v4.38h.4V6.76h-.4zm-1.695.2h1.894v-.4h-1.894v.4zm.2 10.28V6.76h-.4v10.48h.4zm1.694-.2h-1.894v.4h1.894v-.4zm.755.4h1.895v-.4h-1.895v.4zm-.2-5.92v5.72h.4v-5.72h-.4zm2.095-.2h-1.895v.4h1.895v-.4zm.2 5.92v-5.72h-.4v5.72h.4zm2.449-.2H16.35v.4h1.895v-.4zm0 0v.4-.4zm-.2-8.485v8.685h.4V8.555h-.4zm-1.695.2h1.895v-.4H16.35v.4zm.2 2.385V8.555h-.4v2.585h.4zm0 6.1v-6.1h-.4v6.1h.4z" fill="#181E45"></path></svg>