<svg width="24" height="24" fill="#181E45" xmlns="http://www.w3.org/2000/svg"><path fill-rule="evenodd" clip-rule="evenodd" d="M10.366 8.817a4.817 4.817 0 119.634 0 4.817 4.817 0 01-9.634 0zm.567 0a4.25 4.25 0 108.5 0 4.25 4.25 0 00-8.5 0z"></path><path d="M10.366 8.817h-.2.2zm4.817 4.816v.2-.2zm-4.25-4.816h-.2.2zm4.25-4.25v-.2.2zm0-.767a5.017 5.017 0 00-5.017 5.017h.4A4.617 4.617 0 0115.183 4.2v-.4zM20.2 8.817A5.017 5.017 0 0015.183 3.8v.4a4.617 4.617 0 014.616 4.617h.4zm-5.017 5.016A5.017 5.017 0 0020.2 8.817h-.4a4.617 4.617 0 01-4.617 4.616v.4zm-5.017-5.016a5.022 5.022 0 005.017 5.016v-.4a4.622 4.622 0 01-4.617-4.617h-.4zm5.017 4.05a4.05 4.05 0 01-4.05-4.05h-.4a4.45 4.45 0 004.45 4.45v-.4zm4.05-4.05a4.05 4.05 0 01-4.05 4.05v.4a4.45 4.45 0 004.45-4.45h-.4zm-4.05-4.05a4.05 4.05 0 014.05 4.05h.4a4.45 4.45 0 00-4.45-4.45v.4zm-4.05 4.05a4.055 4.055 0 014.05-4.05v-.4a4.455 4.455 0 00-4.45 4.45h.4z"></path><path fill-rule="evenodd" clip-rule="evenodd" d="M3 16.183a4.817 4.817 0 119.633 0 4.817 4.817 0 01-9.633 0zm.567 0a4.25 4.25 0 108.5 0 4.25 4.25 0 00-8.5 0z"></path><path d="M3 16.183h-.2.2zM7.817 21v.2-.2zm-4.25-4.817h-.2.2zm4.25-4.25v-.2.2zm0-.766A5.017 5.017 0 002.8 16.183h.4a4.617 4.617 0 014.617-4.616v-.4zm5.016 5.016a5.017 5.017 0 00-5.016-5.016v.4a4.617 4.617 0 014.616 4.616h.4zM7.817 21.2a5.017 5.017 0 005.016-5.017h-.4A4.617 4.617 0 017.817 20.8v.4zM2.8 16.184A5.022 5.022 0 007.816 21.2v-.4A4.622 4.622 0 013.2 16.183h-.4zm5.017 4.05a4.05 4.05 0 01-4.05-4.05h-.4a4.45 4.45 0 004.45 4.45v-.4zm4.05-4.05a4.05 4.05 0 01-4.05 4.05v.4a4.45 4.45 0 004.45-4.45h-.4zm-4.05-4.05a4.05 4.05 0 014.05 4.05h.4a4.45 4.45 0 00-4.45-4.45v.4zm-4.05 4.05a4.055 4.055 0 014.05-4.05v-.4a4.455 4.455 0 00-4.45 4.45h.4zM8.383 15.9H7.25a.567.567 0 110-1.133h1.133c.313 0 .567.253.567.566h.566a1.133 1.133 0 00-.85-1.093v-.607H8.1v.567h-.567v-.567h-.567v.607a1.131 1.131 0 00.284 2.227h1.133a.567.567 0 110 1.133H7.25a.567.567 0 01-.567-.567h-.567c.002.515.351.965.85 1.093v.607h.567v-.566H8.1v.566h.566v-.607a1.131 1.131 0 00-.283-2.226z"></path><path d="M4.134 16.183H4.7a3.12 3.12 0 013.117-3.116V12.5a3.688 3.688 0 00-3.683 3.683zM10.933 16.183A3.12 3.12 0 017.816 19.3v.567a3.688 3.688 0 003.684-3.684h-.567z" class="exchangeIcon_svg__stroke-color"></path><path fill-rule="evenodd" clip-rule="evenodd" d="M16.848 9.386a1.129 1.129 0 00-.35-.57 1.13 1.13 0 00-.465-1.942v-.607h-.566v.566H14.9v-.566h-.567v.566h-.566a.283.283 0 00-.284.284v3.4c0 .156.127.283.284.283h.566v.567h.567V10.8h.567v.567h.566v-.607c.605-.155.97-.77.815-1.374zm-2.798.847V9.1h1.7a.567.567 0 010 1.133h-1.7zm0-2.833v1.133h1.7a.567.567 0 000-1.133h-1.7z"></path><path d="M16.499 8.817l-.132-.15-.171.15.171.15.132-.15zm.35.57l.193-.05-.194.05zm-.246-2.164l-.15.132.15-.132zm-.57-.35h-.2v.156l.15.038.05-.193zm0-.606h.2v-.2h-.2v.2zm-.566 0v-.2h-.2v.2h.2zm0 .566v.2h.2v-.2h-.2zm-.567 0h-.2v.2h.2v-.2zm0-.566h.2v-.2h-.2v.2zm-.567 0v-.2h-.2v.2h.2zm0 .566v.2h.2v-.2h-.2zm0 3.967h.2v-.2h-.2v.2zm0 .567h-.2v.2h.2v-.2zm.567 0v.2h.2v-.2h-.2zm0-.567v-.2h-.2v.2h.2zm.567 0h.2v-.2h-.2v.2zm0 .567h-.2v.2h.2v-.2zm.566 0v.2h.2v-.2h-.2zm0-.607l-.05-.194-.15.038v.156h.2zM14.05 9.1v-.2h-.2v.2h.2zm0 1.133h-.2v.2h.2v-.2zm0-1.7h-.2v.2h.2v-.2zm0-1.133v-.2h-.2v.2h.2zm2.317 1.567c.14.124.241.287.287.469l.388-.1a1.329 1.329 0 00-.411-.67l-.264.301zm.085-1.612a.93.93 0 01-.085 1.311l.264.301a1.33 1.33 0 00.122-1.876l-.3.264zm-.468-.288a.93.93 0 01.469.288l.3-.264a1.33 1.33 0 00-.67-.411l-.1.387zm-.15-.8v.607h.4v-.607h-.4zm-.367.2h.566v-.4h-.566v.4zm.2.366v-.566h-.4v.566h.4zm-.767.2h.567v-.4H14.9v.4zm-.2-.766v.566h.4v-.566h-.4zm-.367.2h.567v-.4h-.567v.4zm.2.366v-.566h-.4v.566h.4zm-.766.2h.566v-.4h-.566v.4zm-.084.084c0-.046.038-.084.084-.084v-.4a.483.483 0 00-.484.484h.4zm0 3.4v-3.4h-.4v3.4h.4zm.084.083a.083.083 0 01-.084-.083h-.4c0 .267.217.483.484.483v-.4zm.566 0h-.566v.4h.566v-.4zm.2.767V10.8h-.4v.567h.4zm.367-.2h-.567v.4h.567v-.4zm-.2-.367v.567h.4V10.8h-.4zm.767-.2H14.9v.4h.567v-.4zm.2.767V10.8h-.4v.567h.4zm.366-.2h-.566v.4h.566v-.4zm-.2-.407v.607h.4v-.607h-.4zm.821-1.324a.93.93 0 01-.67 1.13l.099.387a1.33 1.33 0 00.959-1.616l-.388.099zM13.85 9.1v1.133h.4V9.1h-.4zm1.9-.2h-1.7v.4h1.7v-.4zm.767.767a.767.767 0 00-.767-.767v.4c.203 0 .367.164.367.367h.4zm-.767.766a.767.767 0 00.767-.766h-.4a.367.367 0 01-.367.366v.4zm-1.7 0h1.7v-.4h-1.7v.4zm.2-1.9V7.4h-.4v1.133h.4zm1.5-.2h-1.7v.4h1.7v-.4zm.367-.366a.367.367 0 01-.367.366v.4a.767.767 0 00.767-.766h-.4zM15.75 7.6c.203 0 .367.164.367.367h.4a.767.767 0 00-.767-.767v.4zm-1.7 0h1.7v-.4h-1.7v.4z"></path><path fill-rule="evenodd" clip-rule="evenodd" d="M8.383 5.417H9.8c.156 0 .283.127.283.283v1.133a.283.283 0 01-.283.284H8.383A2.27 2.27 0 006.134 9.1h.55a.283.283 0 01.217.465l-1.417 1.7a.283.283 0 01-.436 0l-1.416-1.7A.283.283 0 013.85 9.1h.576a3.972 3.972 0 013.957-3.683zm0 1.133h1.134v-.567H8.383a3.404 3.404 0 00-3.4 3.4.283.283 0 01-.283.284h-.245l.812.974.811-.974h-.245a.283.283 0 01-.283-.284A2.836 2.836 0 018.383 6.55z"></path><path d="M8.383 5.417v-.2.2zm0 1.7v-.2.2zM6.134 9.1l-.198-.025-.029.225h.227v-.2zm.55 0v.2-.2zm.18.066l.129-.154-.128.154zm.037.399l.154.128-.154-.128zm-1.417 1.7l-.153-.128.153.128zm-.036.036l-.128-.153.128.153zm-.4-.036l.155-.128-.154.128zm-1.416-1.7l-.154.128.154-.128zm-.066-.182h-.2.2zM3.85 9.1v.2-.2zm.576 0v.2h.186l.014-.185-.2-.015zm5.09-2.55v.2h.2v-.2h-.2zm-1.133 0v-.2.2zm1.134-.567h.2v-.2h-.2v.2zm-1.134 0v-.2.2zm-3.4 3.4h-.2.2zm-.528.284v-.2h-.427l.273.328.154-.128zm.812.974l-.154.128.154.184.153-.184-.153-.128zm.811-.974l.154.128.273-.328h-.427v.2zm-.528-.284h-.2.2zM9.8 5.217H8.383v.4H9.8v-.4zm.483.483a.483.483 0 00-.483-.483v.4c.046 0 .083.037.083.083h.4zm0 1.133V5.7h-.4v1.133h.4zm-.483.484a.483.483 0 00.483-.484h-.4a.083.083 0 01-.083.084v.4zm-1.417 0H9.8v-.4H8.383v.4zm-2.05 1.808a2.07 2.07 0 012.05-1.808v-.4a2.47 2.47 0 00-2.447 2.158l.397.05zm.35-.225h-.549v.4h.55v-.4zm.31.112a.483.483 0 00-.31-.112v.4c.02 0 .039.007.054.02l.256-.308zm.062.68a.483.483 0 00-.062-.68l-.256.307c.035.03.04.082.01.118l.308.256zm-1.417 1.7l1.417-1.7-.308-.255-1.416 1.7.307.256zm-.063.063a.48.48 0 00.063-.063l-.307-.255a.078.078 0 01-.011.01l.255.308zm-.68-.063c.17.206.475.234.68.063l-.255-.307a.083.083 0 01-.117-.011l-.308.255zm-1.417-1.7l1.417 1.7.307-.255-1.416-1.7-.308.256zm-.112-.309c0 .113.04.223.112.31l.308-.256a.083.083 0 01-.02-.054h-.4zM3.85 8.9a.483.483 0 00-.484.483h.4c0-.046.038-.083.084-.083v-.4zm.576 0H3.85v.4h.576v-.4zm3.957-3.683a4.172 4.172 0 00-4.156 3.868l.399.03a3.772 3.772 0 013.758-3.498l-.001-.4zM9.517 6.35H8.383v.4h1.134v-.4zm-.2-.367v.567h.4v-.567h-.4zm-.934.2h1.134v-.4H8.383v.4zm-3.2 3.2a3.204 3.204 0 013.2-3.2v-.4a3.604 3.604 0 00-3.6 3.6h.4zm-.483.484a.483.483 0 00.483-.484h-.4a.083.083 0 01-.083.084v.4zm-.245 0H4.7v-.4h-.245v.4zm.965.646l-.812-.974-.307.256.812.974.307-.256zm.505-.974l-.812.974.307.256.812-.974-.307-.256zm-.092.328h.245v-.4h-.245v.4zm-.483-.484c0 .267.216.484.483.484v-.4a.083.083 0 01-.083-.084h-.4zM8.383 6.35A3.036 3.036 0 005.35 9.383h.4A2.636 2.636 0 018.383 6.75v-.4z"></path><path fill-rule="evenodd" clip-rule="evenodd" d="M17.951 14.019l1.417 1.7a.283.283 0 01-.218.464h-.576a3.972 3.972 0 01-3.957 3.684H13.2a.283.283 0 01-.283-.284V18.45c0-.156.127-.283.283-.283h1.417a2.27 2.27 0 002.249-1.984h-.549a.283.283 0 01-.218-.464l1.417-1.7a.293.293 0 01.436 0zm.066 1.881c0-.157.127-.283.283-.283h.245l-.811-.974-.812.974h.245c.156 0 .283.126.283.283a2.836 2.836 0 01-2.833 2.833h-1.133v.567h1.133a3.404 3.404 0 003.4-3.4z"></path><path d="M19.368 15.719l.154-.128-.154.128zm-1.416-1.7l.153-.129-.005-.005-.149.134zm1.482 1.881h.2-.2zm-.284.283v-.2.2zm-.576 0v-.2h-.186l-.014.186.2.014zm-3.957 3.684v.2-.2zm0-1.7v.2-.2zm2.249-1.984l.198.026.029-.226h-.227v.2zm-.549 0v-.2.2zm-.181-.065l-.128.153.128-.153zm-.037-.4l-.154-.127.154.128zm1.417-1.7l-.149-.134-.005.007.154.128zm.021-.02l-.134-.149.134.149zm.48 1.902h.2-.2zm.528-.283v.2h.427l-.273-.328-.154.128zm-.811-.974l.153-.129-.153-.184-.154.184.154.129zm-.812.974l-.154-.128-.273.328h.427v-.2zm.528.283h.2-.2zm-2.833 2.833v.2-.2zm-1.133 0v-.2h-.2v.2h.2zm0 .567h-.2v.2h.2v-.2zm1.133 0v.2-.2zm4.905-3.71l-1.417-1.7-.307.257 1.417 1.7.307-.256zm.112.31a.483.483 0 00-.112-.31l-.307.257c.012.015.019.034.019.053h.4zm-.484.483a.483.483 0 00.484-.483h-.4a.083.083 0 01-.084.083v.4zm-.576 0h.576v-.4h-.576v.4zm-3.957 3.684a4.172 4.172 0 004.156-3.87l-.399-.028a3.772 3.772 0 01-3.757 3.498v.4zm-1.417 0h1.417v-.4H13.2v.4zm-.483-.484c0 .267.216.484.483.484v-.4a.083.083 0 01-.083-.084h-.4zm0-1.133v1.133h.4V18.45h-.4zm.483-.483a.483.483 0 00-.483.483h.4c0-.046.037-.083.083-.083v-.4zm1.417 0H13.2v.4h1.417v-.4zm2.05-1.809a2.07 2.07 0 01-2.05 1.809v.4a2.47 2.47 0 002.447-2.158l-.397-.05zm-.35.225h.549v-.4h-.549v.4zm-.31-.112a.483.483 0 00.31.112v-.4a.084.084 0 01-.054-.019l-.256.307zm-.062-.68a.483.483 0 00.063.68l.256-.307a.083.083 0 01-.011-.117l-.308-.256zm1.417-1.7l-1.416 1.7.307.256 1.416-1.7-.307-.256zm.04-.042a.514.514 0 00-.035.035l.297.269a.116.116 0 01.007-.007l-.268-.297zm.698.036a.494.494 0 00-.697-.036l.268.297a.093.093 0 01.132.007l.297-.268zm.2 1.532a.483.483 0 00-.483.483h.4c0-.046.037-.083.083-.083v-.4zm.245 0H18.3v.4h.245v-.4zm-.965-.646l.812.974.307-.256-.812-.975-.307.257zm-.504.974l.811-.974-.307-.257-.812.975.308.256zm.091-.328h-.245v.4h.245v-.4zm.483.483a.483.483 0 00-.483-.483v.4c.046 0 .083.037.083.083h.4zm-3.033 3.033A3.036 3.036 0 0017.65 15.9h-.4a2.636 2.636 0 01-2.633 2.633v.4zm-1.133 0h1.133v-.4h-1.133v.4zm.2.367v-.567h-.4v.567h.4zm.933-.2h-1.133v.4h1.133v-.4zm3.2-3.2a3.204 3.204 0 01-3.2 3.2v.4a3.604 3.604 0 003.6-3.6h-.4z"></path><path d="M11.5 8.817h.567A3.12 3.12 0 0115.183 5.7v-.567A3.688 3.688 0 0011.5 8.817zM18.3 8.817a3.12 3.12 0 01-3.116 3.116v.567a3.687 3.687 0 003.683-3.683H18.3z" class="exchangeIcon_svg__stroke-color"></path></svg>