<svg width="24" height="24" viewBox="0 0 24 24" fill="none" xmlns="http://www.w3.org/2000/svg"><path d="M5.35465 10.0909C5.35465 10.3788 5.29657 10.6553 5.18042 10.9205C5.06427 11.1856 4.91327 11.4432 4.72742 11.6932C4.54158 11.9356 4.3325 12.1705 4.1002 12.3977C3.86789 12.625 3.63946 12.8409 3.4149 13.0455C3.29874 13.1515 3.17097 13.2727 3.03159 13.4091C2.89995 13.5379 2.77218 13.6705 2.64829 13.8068C2.52439 13.9432 2.41211 14.072 2.31144 14.1932C2.21852 14.3068 2.16044 14.4015 2.13721 14.4773H5.59857V15.8977H0.232306C0.216819 15.8144 0.209075 15.7083 0.209075 15.5795C0.209075 15.4508 0.209075 15.3598 0.209075 15.3068C0.209075 14.9432 0.267152 14.6098 0.383305 14.3068C0.507201 14.0038 0.665943 13.7235 0.859532 13.4659C1.05312 13.2008 1.26994 12.9545 1.50999 12.7273C1.75778 12.5 2.0017 12.2727 2.24175 12.0455C2.4276 11.8712 2.60182 11.7083 2.76444 11.5568C2.92705 11.3977 3.07031 11.2462 3.1942 11.1023C3.3181 10.9508 3.4149 10.803 3.48459 10.6591C3.55428 10.5076 3.58912 10.3561 3.58912 10.2045C3.58912 9.87121 3.49233 9.63636 3.29874 9.5C3.10515 9.36364 2.8651 9.29545 2.57859 9.29545C2.36952 9.29545 2.17206 9.32955 1.98621 9.39773C1.80811 9.45833 1.64163 9.53409 1.48676 9.625C1.33963 9.70833 1.21186 9.79545 1.10345 9.88636C0.995043 9.9697 0.913736 10.0379 0.859532 10.0909L0 8.90909C0.340715 8.59849 0.735635 8.3447 1.18476 8.14773C1.64163 7.94318 2.12947 7.84091 2.64829 7.84091C3.12064 7.84091 3.52718 7.89394 3.86789 8C4.20861 8.10606 4.48737 8.25758 4.70419 8.45455C4.92876 8.64394 5.09137 8.87879 5.19203 9.15909C5.30044 9.43182 5.35465 9.74242 5.35465 10.0909Z" fill="#e23f65"></path><path d="M9.9004 10.0909C9.5984 10.4773 9.27705 10.8977 8.93633 11.3523C8.59562 11.8068 8.30911 12.2727 8.0768 12.75H9.9004V10.0909ZM11.5962 8.02273V12.75H12.4558V14.1364H11.5962V15.8977H9.9004V14.1364H6.42743V12.8977C6.59779 12.5644 6.81073 12.1894 7.06627 11.7727C7.32181 11.3485 7.60445 10.9167 7.91419 10.4773C8.23167 10.0303 8.56464 9.5947 8.9131 9.17045C9.26156 8.74621 9.61002 8.36364 9.95848 8.02273H11.5962Z" fill="#e23f65"></path><path d="M14.2835 18H12.5064L16.4091 7H18.163L14.2835 18Z" fill="#e23f65"></path><path d="M19.5165 15.8977C19.563 15.3447 19.6598 14.7689 19.8069 14.1705C19.954 13.572 20.1321 12.9848 20.3412 12.4091C20.558 11.8333 20.7981 11.2917 21.0613 10.7841C21.3246 10.2689 21.5918 9.82576 21.8628 9.45455H18.3666V8.01136H24V9.23864C23.7522 9.50379 23.4773 9.87121 23.1753 10.3409C22.8811 10.8106 22.5984 11.3447 22.3274 11.9432C22.0641 12.5341 21.8318 13.1705 21.6305 13.8523C21.4369 14.5341 21.3169 15.2159 21.2704 15.8977H19.5165Z" fill="#e23f65"></path></svg>