<svg aria-hidden="true" version="1.1"
     xmlns="http://www.w3.org/2000/svg">
  <symbol id="always-time">
    <path d="M5.35465 10.0909C5.35465 10.3788 5.29657 10.6553 5.18042 10.9205C5.06427 11.1856 4.91327 11.4432 4.72742 11.6932C4.54158 11.9356 4.3325 12.1705 4.1002 12.3977C3.86789 12.625 3.63946 12.8409 3.4149 13.0455C3.29874 13.1515 3.17097 13.2727 3.03159 13.4091C2.89995 13.5379 2.77218 13.6705 2.64829 13.8068C2.52439 13.9432 2.41211 14.072 2.31144 14.1932C2.21852 14.3068 2.16044 14.4015 2.13721 14.4773H5.59857V15.8977H0.232306C0.216819 15.8144 0.209075 15.7083 0.209075 15.5795C0.209075 15.4508 0.209075 15.3598 0.209075 15.3068C0.209075 14.9432 0.267152 14.6098 0.383305 14.3068C0.507201 14.0038 0.665943 13.7235 0.859532 13.4659C1.05312 13.2008 1.26994 12.9545 1.50999 12.7273C1.75778 12.5 2.0017 12.2727 2.24175 12.0455C2.4276 11.8712 2.60182 11.7083 2.76444 11.5568C2.92705 11.3977 3.07031 11.2462 3.1942 11.1023C3.3181 10.9508 3.4149 10.803 3.48459 10.6591C3.55428 10.5076 3.58912 10.3561 3.58912 10.2045C3.58912 9.87121 3.49233 9.63636 3.29874 9.5C3.10515 9.36364 2.8651 9.29545 2.57859 9.29545C2.36952 9.29545 2.17206 9.32955 1.98621 9.39773C1.80811 9.45833 1.64163 9.53409 1.48676 9.625C1.33963 9.70833 1.21186 9.79545 1.10345 9.88636C0.995043 9.9697 0.913736 10.0379 0.859532 10.0909L0 8.90909C0.340715 8.59849 0.735635 8.3447 1.18476 8.14773C1.64163 7.94318 2.12947 7.84091 2.64829 7.84091C3.12064 7.84091 3.52718 7.89394 3.86789 8C4.20861 8.10606 4.48737 8.25758 4.70419 8.45455C4.92876 8.64394 5.09137 8.87879 5.19203 9.15909C5.30044 9.43182 5.35465 9.74242 5.35465 10.0909Z" fill="#e23f65"></path><path d="M9.9004 10.0909C9.5984 10.4773 9.27705 10.8977 8.93633 11.3523C8.59562 11.8068 8.30911 12.2727 8.0768 12.75H9.9004V10.0909ZM11.5962 8.02273V12.75H12.4558V14.1364H11.5962V15.8977H9.9004V14.1364H6.42743V12.8977C6.59779 12.5644 6.81073 12.1894 7.06627 11.7727C7.32181 11.3485 7.60445 10.9167 7.91419 10.4773C8.23167 10.0303 8.56464 9.5947 8.9131 9.17045C9.26156 8.74621 9.61002 8.36364 9.95848 8.02273H11.5962Z" fill="#e23f65"></path><path d="M14.2835 18H12.5064L16.4091 7H18.163L14.2835 18Z" fill="#e23f65"></path><path d="M19.5165 15.8977C19.563 15.3447 19.6598 14.7689 19.8069 14.1705C19.954 13.572 20.1321 12.9848 20.3412 12.4091C20.558 11.8333 20.7981 11.2917 21.0613 10.7841C21.3246 10.2689 21.5918 9.82576 21.8628 9.45455H18.3666V8.01136H24V9.23864C23.7522 9.50379 23.4773 9.87121 23.1753 10.3409C22.8811 10.8106 22.5984 11.3447 22.3274 11.9432C22.0641 12.5341 21.8318 13.1705 21.6305 13.8523C21.4369 14.5341 21.3169 15.2159 21.2704 15.8977H19.5165Z" fill="#e23f65"></path>
  </symbol>

  <symbol id="robot">
    <path d="M12 3C12.4822 3 12.9447 3.18964 13.2856 3.52721C13.6266 3.86477 13.8182 4.32261 13.8182 4.8C13.8182 5.466 13.4545 6.051 12.9091 6.357V7.5H13.8182C15.5059 7.5 17.1245 8.16375 18.318 9.34523C19.5114 10.5267 20.1818 12.1291 20.1818 13.8H21.0909C21.332 13.8 21.5632 13.8948 21.7337 14.0636C21.9042 14.2324 22 14.4613 22 14.7V17.4C22 17.6387 21.9042 17.8676 21.7337 18.0364C21.5632 18.2052 21.332 18.3 21.0909 18.3H20.1818V19.2C20.1818 19.6774 19.9903 20.1352 19.6493 20.4728C19.3083 20.8104 18.8458 21 18.3636 21H5.63636C5.15415 21 4.69169 20.8104 4.35071 20.4728C4.00974 20.1352 3.81818 19.6774 3.81818 19.2V18.3H2.90909C2.66799 18.3 2.43675 18.2052 2.26627 18.0364C2.09578 17.8676 2 17.6387 2 17.4V14.7C2 14.4613 2.09578 14.2324 2.26627 14.0636C2.43675 13.8948 2.66799 13.8 2.90909 13.8H3.81818C3.81818 12.1291 4.48863 10.5267 5.68205 9.34523C6.87546 8.16375 8.49408 7.5 10.1818 7.5H11.0909V6.357C10.5455 6.051 10.1818 5.466 10.1818 4.8C10.1818 4.32261 10.3734 3.86477 10.7144 3.52721C11.0553 3.18964 11.5178 3 12 3ZM7.90909 12.9C7.30633 12.9 6.72825 13.1371 6.30203 13.559C5.87581 13.981 5.63636 14.5533 5.63636 15.15C5.63636 15.7467 5.87581 16.319 6.30203 16.741C6.72825 17.1629 7.30633 17.4 7.90909 17.4C8.51186 17.4 9.08993 17.1629 9.51615 16.741C9.94237 16.319 10.1818 15.7467 10.1818 15.15C10.1818 14.5533 9.94237 13.981 9.51615 13.559C9.08993 13.1371 8.51186 12.9 7.90909 12.9ZM16.0909 12.9C15.4881 12.9 14.9101 13.1371 14.4838 13.559C14.0576 13.981 13.8182 14.5533 13.8182 15.15C13.8182 15.7467 14.0576 16.319 14.4838 16.741C14.9101 17.1629 15.4881 17.4 16.0909 17.4C16.6937 17.4 17.2718 17.1629 17.698 16.741C18.1242 16.319 18.3636 15.7467 18.3636 15.15C18.3636 14.5533 18.1242 13.981 17.698 13.559C17.2718 13.1371 16.6937 12.9 16.0909 12.9Z" fill="#e23f65"></path>
  </symbol>

  <symbol id="key">
    <path fillRule="evenodd" clipRule="evenodd" d="M9.73919 1.39131C11.6571 1.39131 13.2174 2.95236 13.2174 4.86958V6.26088H6.26093V4.86958C6.26093 2.95236 7.82127 1.39131 9.73919 1.39131ZM4.86958 6.26087H3.47827V9.04348H4.86958V7.65217H14.6087V13.913H13.2174V15.3043H16V6.26087H14.6087V4.86957C14.6087 2.18504 12.4244 0 9.73914 0C7.05392 0 4.86958 2.18504 4.86958 4.86957V6.26087Z" fill="#372D6C"></path><path fillRule="evenodd" clipRule="evenodd" d="M1.3913 11.8263C1.3913 11.443 1.70364 11.1306 2.08695 11.1306H2.7826C3.1659 11.1306 3.47825 11.443 3.47825 11.8263V13.9132C3.47825 14.2972 3.1659 14.6089 2.7826 14.6089H2.08695C1.70364 14.6089 1.3913 14.2972 1.3913 13.9132V11.8263ZM2.08696 16.0001H2.78261C3.93322 16.0001 4.86957 15.0638 4.86957 13.9132V13.2175H9.04348V14.6088H10.4348V13.2175H11.1304V15.3045H12.5217V11.8262H4.86957C4.86957 10.6756 3.93322 9.73926 2.78261 9.73926H2.08696C0.936348 9.73926 0 10.6756 0 11.8262V13.9132C0 15.0638 0.936348 16.0001 2.08696 16.0001Z" fill="#372D6C"></path>
  </symbol>

  <symbol id="person">
    <g clip-path="url(#clip0)"><path fillRule="evenodd" clipRule="evenodd" d="M12.364 -0.000976562V2.181H10.1821V3.63493H12.364V5.81691H13.8187V3.63493H16V2.181H13.8187V-0.000976562H12.364Z" fill="white"></path><path fillRule="evenodd" clipRule="evenodd" d="M1.45403 13.8203C1.45403 12.6173 2.43301 11.6383 3.63601 11.6383H8.7273C9.9303 11.6383 10.9093 12.6173 10.9093 13.8203V14.5476H1.45403V13.8203ZM-0.000671387 13.8193V16.0012H12.3639V13.8193C12.3639 11.814 10.7325 10.1826 8.72725 10.1826H3.63596C1.63072 10.1826 -0.000671387 11.814 -0.000671387 13.8193V13.8193Z" fill="white"></path><path fillRule="evenodd" clipRule="evenodd" d="M6.18155 4.3629C7.18454 4.3629 7.99987 5.17896 7.99987 6.18122C7.99987 7.18347 7.18454 7.99953 6.18155 7.99953C5.17857 7.99953 4.36323 7.18347 4.36323 6.18122C4.36323 5.17896 5.17857 4.3629 6.18155 4.3629M6.18148 9.45415C7.98598 9.45415 9.45445 7.9864 9.45445 6.18118C9.45445 4.37668 7.98598 2.9082 6.18148 2.9082C4.37698 2.9082 2.90851 4.37668 2.90851 6.18118C2.90851 7.9864 4.37698 9.45415 6.18148 9.45415" fill="white"></path></g><defs><clipPath id="clip0"><rect width="16" height="16" fill="white"></rect></clipPath></defs>
  </symbol>
</svg>
