<svg aria-hidden="true" version="1.1"
     xmlns="http://www.w3.org/2000/svg">
  <symbol id="partner">
    <path fillRule="evenodd" clipRule="evenodd" d="M22 7.872a1.69 1.69 0 00-.302-.985L20.035 4.58A1.39 1.39 0 0018.908 4c-.252 0-.509.07-.736.223L16.55 5.317c-.171.118-.463.2-.746.197a1.263 1.263 0 01-.572-.121l-1.589-.834a1.789 1.789 0 00-.829-.19c-.412.003-.83.112-1.166.365l-.185.14-.59-.318-.004-.002-.003-.001-.034-.019c-.308-.163-.67-.23-1.035-.23-.33 0-.66.055-.95.188l-1.082.5c-.176.083-.456.137-.735.136-.278.001-.557-.053-.734-.135l-1.083-.501a1.471 1.471 0 00-.618-.13c-.24 0-.48.051-.703.149a1.602 1.602 0 00-.593.442L1.327 7.347A1.453 1.453 0 001 8.272c0 .391.154.783.452 1.058l1.84 1.701-.873.987c-.241.272-.36.625-.36.973-.001.372.135.746.404 1.022l.177.182c.167.172.368.281.577.34-.105.209-.162.439-.162.67 0 .37.136.745.404 1.021l.178.183a1.232 1.232 0 001.414.277c.056.252.175.492.36.683l.178.183c.253.26.58.389.904.389.252 0 .506-.08.725-.237.064.223.173.434.34.605l.178.184c.252.26.58.389.902.388.344 0 .691-.146.948-.436l.771-.873 1.048 1.051c.25.252.573.378.89.377.35 0 .702-.15.959-.449l.167-.194c.145-.168.239-.367.293-.575l.406.406c.252.251.573.376.89.376.35 0 .703-.151.96-.45l.167-.194c.192-.222.3-.498.333-.779.107.03.216.05.326.05.35 0 .701-.151.959-.45l.167-.193a1.472 1.472 0 00.312-1.277c.29-.042.571-.182.785-.43l.168-.195c.233-.27.348-.618.348-.96 0-.378-.14-.758-.416-1.036l-.313-.313 2.823-3.383c.254-.304.37-.696.371-1.082zM3.543 13.814a.57.57 0 01-.41-.176l-.177-.182a.662.662 0 01-.184-.465c0-.16.054-.318.163-.442l1.788-2.021a.57.57 0 01.841-.022l.177.183s.183.293.183.465a.676.676 0 01-.106.363L3.89 13.695a.57.57 0 01-.346.12zm.997 2.214c.16 0 .315-.066.43-.198l2.384-2.696a.668.668 0 00.163-.442.662.662 0 00-.183-.465l-.177-.183a.568.568 0 00-.41-.176.568.568 0 00-.413.18c-.02.026-2.402 2.714-2.402 2.714a.664.664 0 00-.163.442c0 .172.061.34.183.465l.178.183a.57.57 0 00.41.176zm2.384.945a.569.569 0 01-.84.021l-.18-.182a.661.661 0 01-.182-.465c0-.144.045-.283.131-.4l1.66-1.876a.566.566 0 01.397-.167c.15 0 .295.058.41.176l.178.183a.664.664 0 01.183.464.669.669 0 01-.163.443l-1.594 1.803zm2.145.94l1.007-1.138a.668.668 0 00.163-.442.664.664 0 00-.182-.465l-.178-.183a.569.569 0 00-.842.022l-1.006 1.138a.665.665 0 00-.163.443c0 .171.061.34.183.464l.177.183a.569.569 0 00.841-.021zm9.753-4.227a.666.666 0 01-.158.436l-.167.194a.567.567 0 01-.84.033l-2.812-2.817-.486.564 3.009 3.021a.667.667 0 01.19.47.671.671 0 01-.16.437l-.165.194a.568.568 0 01-.84.033l-2.813-2.817-.485.564L15.59 16.5c.12.125.182.291.182.462a.664.664 0 01-.157.436l-.167.194a.57.57 0 01-.841.034l-2.49-2.492h-.001l-.485.564.01.01 1.247 1.248c.11.123.168.28.168.444a.664.664 0 01-.157.434l-.167.195a.567.567 0 01-.84.033l-1.085-1.09c.094-.201.147-.42.147-.638 0-.371-.136-.745-.405-1.022l-.178-.183a1.255 1.255 0 00-.902-.388c-.014 0-.029.002-.043.004l-.032.004v-.01l.002-.01c0-.371-.405-1.022-.405-1.022l-.177-.183a1.27 1.27 0 00-.659-.364c.05-.151.077-.309.077-.467 0-.37-.135-.745-.404-1.021l-.178-.184c-.252-.26-.58-.389-.902-.389-.025 0-.049.004-.072.007a.914.914 0 01-.04.005 1.462 1.462 0 00-.401-.977l-.177-.183c-.253-.26-.58-.39-.903-.39-.344 0-.691.147-.947.437l-.422.477-1.87-1.727a.642.642 0 01-.201-.474c0-.148.047-.293.146-.414l1.972-2.393a.9.9 0 01.33-.241c.135-.06.29-.093.433-.092.125 0 .243.024.337.068l1.083.5c.305.14.66.197 1.015.199.357-.002.71-.059 1.016-.198l1.082-.5c.167-.08.419-.128.669-.127.277-.002.554.06.715.149l.289.156-1.104.84c-.355.271-.546.7-.545 1.134 0 .288.083.58.254.828l.145.211c.277.4.709.604 1.14.605.244 0 .492-.066.713-.21l.66-.43c.135-.089.338-.145.549-.144.246-.002.495.077.645.197l1.826 1.418c.406.316 1.068.901 1.435 1.27l2.114 2.117a.665.665 0 01.188.47zm-.538-1.873l2.815-3.374a.9.9 0 00.188-.567.888.888 0 00-.152-.512l-1.664-2.307a.7.7 0 00-.563-.283.635.635 0 00-.357.106l-1.623 1.095c-.33.219-.729.312-1.124.314-.307-.001-.613-.059-.884-.2l-1.589-.834a1.13 1.13 0 00-.516-.111c-.286-.002-.586.09-.755.223L10.11 6.849a.65.65 0 00-.13.873h.001l.145.212a.693.693 0 00.567.293.63.63 0 00.344-.1l.66-.429a1.69 1.69 0 01.917-.255c.375.001.754.104 1.063.342l1.826 1.418c.443.345 1.103.93 1.503 1.33l1.279 1.28z" fill="#181E45"></path><path d="M21.698 6.887l.203-.146-.203.146zm.302.985h.25H22zM20.035 4.58l.202-.147-.202.147zM18.908 4v-.25V4zm-.736.223l.14.208-.14-.208zM16.55 5.317l-.14-.207-.003.002.143.205zm-.746.197l.002-.25h-.003v.25zm-.572-.121l.118-.22-.002-.002-.116.222zm-1.589-.834l.117-.222-.117.222zm-.829-.19v-.25h-.001l.001.25zm-1.166.365l-.15-.2h-.001l.151.2zm-.185.14l-.12.22a.25.25 0 00.271-.02l-.151-.2zm-.59-.318l-.119.22.119-.22zm-.004-.002l.119-.22-.119.22zm0 0l-.12.22h.001l.118-.22zm-.003-.001l.119-.22-.119.22zm-.034-.019l.118-.22h-.001l-.117.22zm-1.035-.23v-.25h-.001v.25zm-.95.188l-.104-.227.104.227zm-1.082.5l-.105-.226h-.001l.106.227zm-.735.136l.002-.25h-.003l.001.25zm-.734-.135l.107-.227H6.4l-.105.227zm-1.083-.501l.105-.227-.105.227zm-.618-.13v-.25.25zm-.703.149l-.1-.23-.001.001.1.229zm-.593.442l-.193-.159.193.16zM1.327 7.347l.192.159-.192-.16zM1 8.272h.25H1zm.452 1.058l.17-.183-.17.183zm1.84 1.701l.187.166a.25.25 0 00-.018-.35l-.17.184zm-.873.987l-.188-.166.188.166zm-.36.973h.25-.25zm.404 1.022l.18-.174-.18.174zm.177.182l-.18.175h.001l.18-.175zm.577.34l.224.111a.25.25 0 00-.157-.353l-.067.241zm-.162.67h.25v-.001h-.25zm.404 1.021l-.127.216a.25.25 0 00.307-.39l-.18.174zm0 0l.127-.215a.25.25 0 00-.306.389l.179-.174zm.178.183l-.18.174.18-.174zm.903.389v-.25.25zm.51-.112l.244-.055a.25.25 0 00-.347-.172l.103.227zm.362.683l.18-.174-.18.174zm.177.183l-.179.174.18-.174zm.904.389v-.25.25zm.725-.237l.24-.07a.25.25 0 00-.386-.134l.146.204zm.34.605l.18-.174-.18.174zm.178.184l-.18.174.18-.174zm.902.388v-.25.25zm.948-.436l.187.166-.187-.166zm.771-.873l.177-.176a.25.25 0 00-.364.01l.187.166zm1.048 1.051l.177-.176-.177.176zm.89.377l.001-.25h-.001V19zm.959-.449l.19.163-.19-.163zm.167-.194l.19.163-.19-.163zm.293-.575l.177-.177a.25.25 0 00-.418.114l.241.063zm.406.406l-.176.177.176-.177zm.89.376v-.25.25zm.96-.45l.19.163-.19-.163zm.167-.194l-.19-.163.19.163zm.333-.779l.067-.24a.25.25 0 00-.315.21l.248.03zm1.285-.4l.189.164-.19-.163zm.167-.193l-.19-.163.19.163zm.348-.96h-.25.25zm-.036-.317l-.035-.248a.25.25 0 00-.21.299l.245-.051zm.785-.43l-.19-.164.19.163zm.168-.195l.189.163-.19-.163zm.348-.96l-.25-.001h.25zm-.416-1.036l.176-.176-.177.176zm-.313-.313l-.192-.16a.25.25 0 00.015.337l.177-.177zm2.823-3.383l.192.16-.192-.16zM3.133 13.638l-.179.175.18-.175zm.41.176v.25h.002l-.002-.25zm-.587-.358l.18-.174h-.001l-.179.174zm-.184-.465h-.25v.001h.25zm.163-.442l.188.166-.188-.166zm1.788-2.021l-.188-.166.188.166zm.431-.198v-.25.25zm.41.176l.18-.174h-.001l-.179.174zm.177.183l.212-.133a.249.249 0 00-.033-.041l-.18.174zm.183.465h.25-.25zm-.106.363l.184.17a.249.249 0 00.027-.036l-.21-.134zM3.89 13.695l.152.198a.246.246 0 00.035-.032l-.187-.166zm1.082 2.135l.187.166-.187-.166zm-.43.198l-.001.25h.001v-.25zm2.813-2.894l.188.166-.188-.166zm.163-.442h.25v-.001h-.25zm-.183-.465l-.18.174h.001l.18-.174zm-.177-.183l.18-.174h-.001l-.18.174zm-.41-.176v-.25h-.001v.25zm-.413.18l-.18-.173a.254.254 0 00-.017.02l.197.153zm-2.402 2.714l-.187-.166.187.166zm.02.907l-.18.174c.016.016.034.03.053.041l.127-.215zm0 0l.18-.174a.252.252 0 00-.053-.041l-.127.215zm.178.183l-.18.174h.001l.179-.174zm2.363 1.319v.25-.25zm.43-.198l-.187-.165.188.165zm-.84.022l-.18.174.18-.174zm-.178-.183l.179-.175-.18.175zm-.052-.864l-.187-.166a.244.244 0 00-.014.017l.201.149zm1.66-1.877l-.176-.179a.221.221 0 00-.012.014l.187.165zm.397-.167v-.25.25zm.41.176l.18-.174h-.001l-.18.174zm.178.183l.18-.174-.18.174zm.183.464l.25.001v-.001h-.25zm-.163.443l.187.165-.187-.165zm1.558 1.605l.188.166-.188-.166zM9.07 17.914l-.187-.166.187.166zm1.17-1.581h.25v-.001h-.25zm-.182-.465l.179-.174-.18.174zm-.178-.183l-.18.175.18-.175zm-.41-.176v-.25h-.001v.25zm-.432.198l-.187-.166.187.166zm-1.006 1.138l.187.166-.187-.166zm-.163.443l-.25-.001v.001h.25zm.183.464l.18-.174-.18.174zm.177.183l-.179.174.18-.174zm.41.176v.25h.001v-.25zm10.026-3.989l-.19-.163.19.163zm.158-.436h.25-.25zm-.325.63l.19.164-.19-.164zm-.436.204v.25-.25zm-.405-.17l-.177.176.177-.177zm-2.81-2.818l.176-.176a.25.25 0 00-.366.013l.19.163zm-.487.564l-.19-.163a.25.25 0 00.013.34l.177-.177zm3.009 3.021l-.177.176.177-.176zm.19.47l.25.002v-.003l-.25.002zm-.16.437l-.189-.163.19.163zm-.165.194l.189.163-.19-.163zm-.437.204v.25h.001v-.25zm-.404-.17l.177-.177-.177.177zm-2.811-2.818l.177-.176a.25.25 0 00-.367.013l.19.163zm-.486.564l-.19-.163a.25.25 0 00.013.34l.177-.177zM15.59 16.5l.18-.173-.003-.003-.177.176zm.025.898l-.19-.163.19.163zm-.167.194l-.19-.163.19.163zm-.437.204v.25-.25zm-.404-.17l-.177.176.177-.176zm-2.49-2.492l.176-.177a.25.25 0 00-.177-.073v.25zm-.001 0l-.184.17a.25.25 0 00.184.08v-.25zm0 0l.183-.17a.25.25 0 00-.373.007l.19.162zm-.485.564l-.19-.162a.25.25 0 00.014.34l.176-.178zm0 0l.18-.174-.004-.003-.176.178zm.01.01l-.18.175.003.002.177-.177zm1.247 1.248l.186-.167-.01-.01-.176.177zm.168.444h.25-.25zm-.157.434l-.19-.163.19.163zm-.167.195l.19.163-.19-.163zm-.435.203l-.001.25h.001v-.25zm-.404-.17l.177-.177-.177.177zm-1.086-1.09l-.227-.107a.25.25 0 00.05.283l.177-.176zm.147-.638h-.25.25zm-.405-1.022l-.179.175.18-.175zm-.178-.183l-.179.175.18-.175zm-.902-.388v.25-.25zm-.043.004l-.035-.248.035.248zm-.032.004h-.25a.25.25 0 00.266.25l-.016-.25zm.002-.02h-.25.25zm-.405-1.022l.212-.132a.245.245 0 00-.033-.043l-.179.175zm-.177-.183l.179-.174-.18.174zm-.659-.364l-.238-.077a.25.25 0 00.188.322l.05-.245zm-.327-1.489l-.18.175.18-.175zm-.178-.183l.18-.174-.18.174zm-.902-.389v.25-.25zm-.072.007l-.036-.247.036.247zm0 0l.03.248h.005l-.035-.248zm0 0l-.032-.248H6.64l.035.248zm-.04.005l-.25.008a.25.25 0 00.273.241l-.024-.249zm-.401-.977h-.25a.25.25 0 00.07.174l.18-.174zm0 0h.25a.25.25 0 00-.07-.175l-.18.174zm-.177-.183l.18-.174h-.001l-.18.174zm-.903-.39v.25-.25zm-.947.437l.187.166-.187-.166zm-.422.477l-.17.184a.25.25 0 00.357-.018l-.187-.166zm-1.87-1.727l-.17.183h.001l.17-.183zm-.201-.474h-.25.25zm.146-.414l.193.16-.193-.16zm1.972-2.393l.193.159-.193-.16zm.33-.241l-.101-.229.1.229zm.433-.092v.25-.25zm.337.068l-.106.227h.001l.105-.227zm1.083.5l-.105.228.105-.227zM7.03 5.9v.25h.001V5.9zm1.016-.198l.104.227-.104-.227zm1.082-.5l.105.226h.002L9.129 5.2zm.669-.127l-.001.25h.002l-.001-.25zm.715.149l-.121.219h.002l.119-.22zm.289.156l.151.199a.25.25 0 00-.032-.419l-.12.22zm-1.104.84l-.151-.198.151.199zm-.545 1.134h.25-.25zm.254.828l-.19.161a.25.25 0 00.396-.303l-.206.142zm0 0l.19-.162a.25.25 0 00-.396.303l.206-.142zm.145.211l-.206.142.001.001.205-.143zm1.14.605v.25-.25zm.713-.21l.137.21-.137-.21zm.66-.43l.137.21.002-.001-.139-.209zm.549-.144l-.002.25h.003l-.002-.25zm.645.197l-.156.195.003.002.153-.197zm1.826 1.418l-.153.198.153-.198zm1.435 1.27l-.177.176.177-.177zm2.114 2.117l.177-.176-.177.176zm2.465-4.777l-.19-.16h-.002l.192.16zm-2.815 3.374l-.177.177a.25.25 0 00.369-.016l-.192-.16zm3.003-3.941h-.25.25zm-.152-.512l-.203.146v.001l.203-.147zm-1.664-2.307l-.204.144.002.002.202-.146zm-.563-.283v.25-.25zm-.357.106l.14.208-.14-.208zm-1.623 1.095l.139.208v-.001l-.139-.207zm-1.124.314v.25h.002l-.002-.25zm-.884-.2l-.116.222.116-.222zm-1.589-.834l-.117.22.001.002.116-.222zm-.516-.111l-.002.25h.003l-.001-.25zm-.755.223l.152.199.003-.002-.155-.197zM10.11 6.849l-.151-.2v.001l.151.199zm-.243.504h-.25v.001h.25zm.113.368l-.206.142a.25.25 0 00.023.028l.183-.17zm.001 0l.206-.14a.246.246 0 00-.022-.029l-.184.17zm.145.213l.207-.14v-.001l-.207.14zm.567.293v-.25.25zm.344-.1l-.136-.209.136.21zm.66-.429l-.136-.21.136.21zm.917-.255l.001-.25h-.002l.001.25zm1.063.342l.154-.198h-.002l-.152.198zm1.826 1.418l.153-.197-.153.197zm1.503 1.33l.177-.177-.177.177zm4.49-3.5c.172.24.255.537.255.839h.5a1.94 1.94 0 00-.349-1.131l-.406.292zm-1.663-2.307l1.664 2.307.405-.292-1.664-2.308-.405.293zm-.925-.476c.348 0 .695.16.925.476l.405-.293a1.64 1.64 0 00-1.329-.683v.5zm-.595.18c.183-.123.39-.18.596-.18v-.5c-.299 0-.605.083-.876.266l.28.415zm-1.623 1.095l1.623-1.094-.28-.415L16.41 5.11l.28.415zm-.887.24c.32.001.667-.088.89-.242l-.285-.411c-.118.081-.356.154-.601.152l-.004.5zm-.688-.152c.186.1.441.152.691.151l-.002-.5a1.02 1.02 0 01-.453-.092l-.236.44zm-1.587-.833l1.589.834.232-.443-1.588-.834-.233.443zm-.713-.16c.256 0 .5.049.714.16l.231-.443a2.038 2.038 0 00-.944-.218l-.001.5zm-1.016.314c.284-.214.646-.313 1.018-.315l-.003-.5c-.454.003-.927.124-1.315.415l.3.4zm-.184.14l.185-.141-.302-.398-.186.14.303.399zm-.86-.298l.59.318.238-.44-.59-.318-.238.44zm-.003-.002l.003.002.238-.44-.004-.002-.237.44zm-.001 0l.238-.44h-.001l-.237.44zm-.002-.001h.002l.237-.44h-.002l-.237.44zm-.035-.019l.035.019.237-.44-.035-.02-.237.441zm-.917-.2c.338 0 .657.062.918.2l.235-.44c-.354-.189-.759-.26-1.151-.26l-.002.5zm-.845.165a2.06 2.06 0 01.847-.166l-.002-.5c-.356.001-.723.06-1.053.212l.208.454zm-1.081.5l1.082-.5-.21-.454-1.082.5.21.454zm-.84.159c.303.001.622-.056.841-.16l-.212-.452a1.604 1.604 0 01-.627.112l-.003.5zm-.84-.16c.22.104.538.161.842.16l-.003-.5a1.602 1.602 0 01-.626-.112l-.213.453zm-1.082-.5l1.083.501.21-.453-1.083-.501-.21.454zm-.513-.107c.178 0 .353.034.513.108l.21-.454a1.72 1.72 0 00-.722-.154l-.001.5zm-.603.129c.192-.085.398-.129.603-.129v-.5c-.276 0-.55.06-.804.17l.201.459zm-.5.372c.136-.165.31-.288.501-.373l-.202-.457c-.253.112-.493.28-.685.512l.385.318zM1.52 7.506l1.972-2.394-.386-.318-1.972 2.394.386.318zm-.27.766c0-.274.09-.55.27-.766l-.386-.319A1.703 1.703 0 00.75 8.272h.5zm.371.875a1.19 1.19 0 01-.371-.875h-.5c0 .455.179.916.532 1.242l.34-.367zm1.84 1.7l-1.84-1.7-.339.367 1.84 1.7.339-.366zm-.855 1.336l.873-.986-.375-.331-.873.986.375.331zm-.298.808c0-.293.101-.585.298-.808l-.375-.33a1.721 1.721 0 00-.423 1.138h.5zm.334.847a1.212 1.212 0 01-.334-.846h-.5c0 .43.157.869.476 1.196l.358-.35zm.178.183l-.177-.182-.36.348.178.183.359-.349zm.464.272a1.021 1.021 0 01-.465-.272l-.358.349c.2.206.441.336.69.405l.133-.482zm.021.91c0-.188.047-.38.136-.557l-.447-.224c-.122.242-.19.51-.189.783l.5-.001zm.334.849a1.214 1.214 0 01-.334-.848h-.5c0 .43.157.87.475 1.197l.359-.35zm-.307.39l.254-.431-.254.43zm.484-.207l-.178-.183-.358.348.177.183.359-.348zm.724.313c-.256 0-.519-.102-.724-.313l-.359.348c.3.309.693.465 1.083.465v-.5zm.407-.09a.981.981 0 01-.407.09v.5c.21 0 .418-.046.613-.134l-.206-.456zm.644.737a1.176 1.176 0 01-.297-.564l-.488.11c.066.291.204.574.427.802l.358-.348zm.178.183l-.178-.183-.359.348.178.183.359-.348zm.723.313c-.256 0-.518-.102-.723-.313l-.359.348c.3.309.692.465 1.083.465v-.5zm.58-.19a.994.994 0 01-.58.19v.5c.307 0 .611-.098.872-.284l-.292-.407zm.665.634a1.175 1.175 0 01-.279-.5l-.48.138c.073.255.2.504.4.71l.36-.348zm.178.184l-.177-.183-.36.348.178.183.36-.348zm.723.312c-.255 0-.518-.102-.723-.313l-.359.349c.3.308.692.465 1.083.464v-.5zm.76-.352a1.013 1.013 0 01-.76.352v.5c.416 0 .831-.176 1.135-.52l-.374-.332zm.772-.872l-.771.872.374.332.771-.873-.374-.331zm1.412 1.04l-1.048-1.051-.354.353 1.048 1.05.354-.352zm.713.303c-.251 0-.509-.098-.713-.303l-.354.352a1.5 1.5 0 001.068.451l-.001-.5zm.77-.362c-.21.243-.493.363-.769.362l-.001.5c.422.001.844-.183 1.148-.536l-.378-.326zm.167-.194l-.168.194.38.326.167-.194-.38-.326zm.24-.475c-.046.177-.125.34-.24.475l.379.326c.173-.202.283-.436.345-.674l-.483-.127zm.825.293l-.406-.407-.353.354.405.406.354-.353zm.713.302c-.25 0-.509-.098-.713-.303l-.353.354c.298.298.683.45 1.067.449v-.5zm.771-.363c-.21.243-.494.363-.77.363v.5c.422 0 .844-.183 1.149-.537l-.379-.326zm.166-.193l-.166.194.38.325.165-.194-.38-.325zm.275-.646c-.028.238-.12.465-.275.645l.379.327c.229-.265.354-.59.393-.913l-.497-.06zm.573-.17a.973.973 0 01-.258-.042l-.133.482c.12.033.252.06.392.06v-.5zm.77-.364c-.21.244-.493.363-.77.363v.5c.423 0 .844-.183 1.149-.536l-.378-.327zm.167-.193l-.167.194.38.326.166-.194-.379-.326zm.288-.797c0 .287-.097.575-.288.797l.38.326c.274-.32.409-.727.408-1.124h-.5zm-.03-.266c.019.093.03.18.03.265h.5c0-.128-.017-.251-.04-.367l-.49.102zm.84-.645c-.172.2-.397.313-.631.346l.071.495c.346-.05.683-.218.939-.515l-.38-.326zm.167-.194l-.167.194.379.326.167-.194-.379-.326zm.288-.798c0 .288-.097.576-.288.798l.379.326c.275-.32.41-.727.41-1.124h-.5zm-.343-.858c.225.226.343.541.343.858h.5c0-.437-.162-.883-.49-1.211l-.353.353zm-.313-.313l.313.313.353-.353-.312-.313-.354.353zm2.808-3.72l-2.823 3.383.384.32 2.823-3.383-.384-.32zm.313-.923c0 .338-.103.671-.313.923l.384.32c.297-.357.428-.808.429-1.242h-.5zM2.954 13.813a.82.82 0 00.589.251l.001-.5a.32.32 0 01-.232-.1l-.358.349zm-.177-.183l.177.183.358-.349-.177-.182-.358.348zm-.255-.638c0 .23.082.462.255.639l.358-.35a.412.412 0 01-.113-.29l-.5.001zm.226-.608a.914.914 0 00-.226.607l.5.001c0-.106.035-.203.1-.277l-.374-.331zm1.787-2.022l-1.787 2.022.375.33 1.787-2.02-.375-.332zm.619-.282a.822.822 0 00-.619.282l.375.332a.322.322 0 01.244-.114v-.5zm.589.251a.82.82 0 00-.589-.25v.5a.32.32 0 01.232.1l.357-.35zm.177.184l-.176-.183-.36.348.177.183.36-.348zm.254.638a.73.73 0 00-.042-.223 1.56 1.56 0 00-.075-.182 2.33 2.33 0 00-.094-.175l-.007-.011-.002-.004-.001-.001-.212.132-.212.132v.002l.005.007a1.709 1.709 0 01.124.258.43.43 0 01.016.061v.005h.5zm-.145.498a.926.926 0 00.145-.496l-.5-.002a.426.426 0 01-.066.229l.42.27zm-2.14 2.044l.187.166.002-.002.004-.004.016-.019.061-.069.218-.246.662-.747.663-.749.3-.339-.367-.339a3221.263 3221.263 0 00-1.632 1.843l-.218.246-.061.069a5.592 5.592 0 01-.016.018l-.005.005v.001l.186.166zm-.344.37a.82.82 0 00.496-.172l-.304-.396a.32.32 0 01-.195.067l.003.5zm1.239 1.6a.323.323 0 01-.245.113l.002.5c.23-.001.453-.097.617-.282l-.374-.331zm2.383-2.696l-2.383 2.696.374.33L7.542 13.3l-.375-.332zm.1-.278a.418.418 0 01-.1.278l.375.33a.917.917 0 00.225-.607l-.5-.001zm-.112-.29a.413.413 0 01.112.291l.5-.001a.912.912 0 00-.254-.639l-.358.35zm-.178-.183l.178.183.359-.348-.178-.183-.359.348zm-.231-.1c.083 0 .164.031.232.1l.358-.349a.818.818 0 00-.59-.251v.5zm-.231.103a.319.319 0 01.232-.103l-.001-.5c-.22 0-.432.09-.592.257l.36.346zm-2.583 2.54l.187.167.002-.002c0-.002.003-.004.005-.006l.02-.023a89.566 89.566 0 01.346-.39l.82-.926a2155.77 2155.77 0 001.22-1.38l-.395-.306c.001-.002-.14.16-.374.423l-.825.93-.82.928a1231.171 1231.171 0 01-.346.39l-.02.022-.005.006-.002.001.187.167zm.087.443c0-.106.035-.203.1-.277l-.375-.33a.914.914 0 00-.225.607h.5zm.112.29a.412.412 0 01-.112-.29h-.5c0 .23.082.463.254.639l.358-.349zm-.052-.04l-.254.43.254-.43zm.23.224l-.177-.183-.359.348.178.183.358-.348zm.232.1a.32.32 0 01-.232-.1l-.358.349a.82.82 0 00.589.25v-.5zm1.953 1.643c.23-.001.453-.097.617-.282l-.375-.331a.321.321 0 01-.244.113l.002.5zm-.59-.252a.819.819 0 00.589.252v-.5a.32.32 0 01-.231-.1l-.358.348zm-.178-.183l.178.183.358-.349-.178-.183-.358.35zm-.254-.639c0 .23.082.463.254.64l.358-.35a.412.412 0 01-.112-.29h-.5zm.18-.548a.917.917 0 00-.18.548h.5c0-.091.028-.178.082-.25l-.402-.298zm1.673-1.893l-1.66 1.876.375.331 1.66-1.876-.375-.332zm.585-.252a.816.816 0 00-.573.238l.35.358a.316.316 0 01.223-.096v-.5zm.589.251a.818.818 0 00-.589-.251v.5c.082 0 .164.031.231.1l.358-.349zm.178.184l-.178-.183-.358.348.178.183.358-.348zm.254.638a.914.914 0 00-.254-.638l-.358.348a.415.415 0 01.112.291l.5-.001zm-.225.608a.919.919 0 00.225-.607l-.5-.001a.419.419 0 01-.1.278l.375.33zM7.11 17.139l1.594-1.803-.374-.332-1.595 1.804.375.33zm2.778-.53l-1.007 1.14.375.33 1.007-1.138-.375-.332zm.1-.277a.417.417 0 01-.1.278l.375.33a.917.917 0 00.226-.607l-.5-.001zm-.112-.29a.414.414 0 01.112.291l.5-.001a.914.914 0 00-.253-.638l-.359.348zM9.7 15.86l.178.183.358-.35-.178-.182-.358.349zm-.232-.1c.083 0 .164.03.231.1l.359-.35a.818.818 0 00-.59-.25v.5zm-.244.113a.323.323 0 01.245-.114l-.001-.5a.823.823 0 00-.618.282l.374.332zM8.218 17.01l1.007-1.139-.375-.33-1.006 1.138.374.33zm-.1.277c0-.106.035-.203.1-.277l-.374-.331a.915.915 0 00-.226.607l.5.001zm.112.29a.415.415 0 01-.112-.291l-.5.001c0 .23.082.462.254.639l.358-.349zm.178.183l-.178-.183-.358.349.177.182.359-.348zm.231.1a.319.319 0 01-.232-.1l-.357.349a.819.819 0 00.588.251l.001-.5zm.243-.113a.322.322 0 01-.244.113l.001.5c.23 0 .454-.096.618-.282l-.375-.33zm9.971-3.463a.915.915 0 00.22-.598l-.5-.001c0 .103-.035.199-.099.273l.38.326zm-.167.194l.167-.194-.379-.326-.167.194.38.326zm-.625.29c.234 0 .461-.1.625-.29l-.378-.326a.323.323 0 01-.248.117l.001.5zm-.582-.243a.817.817 0 00.581.244l.001-.5a.317.317 0 01-.228-.097l-.354.353zm-2.81-2.817l2.81 2.817.354-.353-2.81-2.817-.355.353zm-.12.55l.486-.564-.38-.326-.485.564.379.326zm2.996 2.681l-3.009-3.02-.354.353 3.009 3.02.354-.352zm.262.646a.917.917 0 00-.262-.646l-.354.354c.074.074.116.179.116.295l.5-.003zm-.218.601a.92.92 0 00.218-.598l-.5-.003a.42.42 0 01-.098.275l.38.326zm-.167.194l.167-.194-.38-.326-.166.194.38.326zm-.625.29c.233 0 .46-.099.625-.29l-.379-.326a.324.324 0 01-.247.117l.001.5zm-.582-.243c.161.161.369.243.58.244l.002-.5a.318.318 0 01-.228-.097l-.354.353zm-2.811-2.817l2.811 2.817.354-.353-2.811-2.817-.354.353zm-.12.55l.486-.564-.379-.326-.486.564.38.326zm2.483 2.162l-2.495-2.501-.354.353 2.495 2.5.354-.352zm.255.638c0-.23-.083-.46-.252-.635l-.36.346a.412.412 0 01.112.289h.5zm-.218.599a.914.914 0 00.218-.6h-.5c0 .105-.034.2-.097.274l.38.326zm-.167.194l.167-.194-.379-.326-.167.194.38.326zm-.625.29c.234 0 .461-.1.625-.29l-.379-.326a.324.324 0 01-.248.117l.002.5zm-.582-.243a.82.82 0 00.58.244l.002-.5a.32.32 0 01-.229-.097l-.353.353zm-2.49-2.491l2.49 2.491.354-.353-2.49-2.492-.354.354zm.176.073v-.5.5zm-.184-.081l.368-.339-.368.339zm-.111.558l.484-.565-.38-.325-.484.565.38.325zm-.014-.34l-.352.355.352-.355zm.013.013l-.01-.01-.358.35.01.009.358-.349zm1.245 1.245l-1.247-1.247-.354.353 1.247 1.248.354-.354zm.241.62a.914.914 0 00-.232-.61l-.372.334a.414.414 0 01.104.278l.5-.002zm-.218.599a.914.914 0 00.218-.597l-.5-.002a.414.414 0 01-.097.272l.38.326zm-.166.194l.166-.195-.379-.325-.167.194.38.326zm-.625.29c.233 0 .46-.1.624-.29l-.378-.327a.322.322 0 01-.247.117l.001.5zm-.582-.244a.817.817 0 00.58.244l.002-.5a.317.317 0 01-.227-.097l-.354.353zm-1.085-1.09l1.085 1.09.355-.353-1.086-1.09-.354.353zm.074-.814c0 .179-.043.36-.124.531l.453.213c.109-.23.17-.485.17-.744h-.5zm-.334-.847c.22.225.334.535.334.847h.5c0-.43-.157-.869-.475-1.196l-.359.349zm-.178-.184l.178.184.359-.349-.178-.183-.359.348zm-.722-.312c.255 0 .517.102.722.313l.359-.349a1.505 1.505 0 00-1.082-.464v.5zm-.009.001a.356.356 0 01.013-.001h-.005v-.5c-.035 0-.067.005-.078.006l.07.495zm-.051.006c.022-.001.042-.004.051-.006l-.07-.495a.633.633 0 01-.011.002h-.002l.032.5zm-.264-.286c0 .001-.002.018-.002.037h.5a.19.19 0 010 .015v.001l-.498-.053zm0 .017v-.015-.002l.498.053s.002-.017.002-.036h-.5zm-.155-1.022l-.212.132.003.005a1.658 1.658 0 01.055.094c.036.063.084.151.132.25.047.098.093.204.127.304.034.103.05.184.05.237h.5c0-.132-.035-.272-.076-.396a3.153 3.153 0 00-.151-.363 4.863 4.863 0 00-.21-.386l-.004-.007a.024.024 0 00-.001-.002l-.213.132zm-.357-.009l.178.183.358-.349-.177-.182-.359.348zm-.529-.292c.19.038.376.135.53.293l.358-.35a1.52 1.52 0 00-.788-.434l-.1.49zm-.123-.713c0 .129-.022.26-.065.39l.476.155c.056-.174.09-.357.09-.545h-.5zm-.333-.847c.22.225.333.535.333.847h.5c0-.43-.156-.869-.475-1.196l-.358.349zm-.178-.184l.177.184.36-.349-.178-.183-.36.348zm-.723-.313c.255 0 .518.103.723.314l.358-.349a1.508 1.508 0 00-1.082-.465v.5zm-.037.005a.332.332 0 01.037-.005v-.5c-.045 0-.087.007-.108.01l.07.495zm0 0l-.07-.495.07.495zm-.005 0l-.062-.496.063.496zm-.047.006l.052-.006-.07-.495a.795.795 0 01-.03.004l.048.497zm-.603-1.052c.209.215.32.51.33.81l.5-.014a1.712 1.712 0 00-.472-1.145l-.358.349zm-.071-.175h.5-.5zm-.107-.008l.178.183.358-.349-.177-.182-.359.348zm-.723-.313c.256 0 .518.102.724.313l.358-.348a1.507 1.507 0 00-1.082-.465v.5zm-.76.352c.209-.237.487-.352.76-.352v-.5c-.416 0-.83.177-1.135.52l.375.332zm-.422.477l.422-.477-.375-.331-.422.477.375.33zM1.747 8.93l1.869 1.728.34-.367-1.87-1.728-.339.367zm-.282-.656c0 .24.092.48.282.656l.34-.366a.393.393 0 01-.122-.292l-.5.002zm.203-.574a.896.896 0 00-.203.572l.5.002c0-.096.03-.184.089-.256L1.668 7.7zM3.64 5.307L1.668 7.7l.386.318 1.972-2.393-.386-.318zm.422-.31a1.15 1.15 0 00-.422.31l.386.318a.652.652 0 01.238-.171l-.202-.458zm.534-.114c-.18 0-.368.04-.534.113l.201.458a.845.845 0 01.333-.071v-.5zm.443.092a1.056 1.056 0 00-.443-.092v.5c.095 0 .175.018.231.045l.212-.453zm1.082.5l-1.083-.5-.21.453 1.083.5.21-.453zm.911.175a2.235 2.235 0 01-.913-.176l-.207.455c.346.158.738.22 1.118.22l.002-.5zm.911-.176c-.264.12-.58.174-.913.176l.002.5a2.73 2.73 0 001.119-.22l-.208-.456zm1.081-.5l-1.082.5.21.455 1.082-.5-.21-.455zm.775-.15a1.896 1.896 0 00-.777.151l.214.452a1.41 1.41 0 01.56-.102l.003-.5zm.835.181c-.21-.116-.533-.182-.838-.18l.003.5c.249-.002.48.055.593.118l.242-.438zm.287.155l-.29-.156-.237.44.288.156.239-.44zM9.85 6.42l1.103-.841-.303-.398-1.103.84.303.399zm-.447.934c0-.363.16-.716.447-.934l-.303-.398a1.673 1.673 0 00-.644 1.333h.5zm.21.686a1.208 1.208 0 01-.21-.685h-.5c0 .334.097.677.298.969l.412-.284zm-.397.303l.382-.323-.382.323zm.543-.091l-.146-.212-.412.283.145.212.413-.283zm.934.496c-.352 0-.706-.168-.935-.497l-.41.285c.324.468.833.711 1.344.712l.001-.5zm.576-.17c-.178.116-.379.17-.577.17v.5c.29 0 .586-.079.85-.25l-.273-.42zm.66-.43l-.66.43.273.42.66-.43-.273-.42zm.686-.184a1.268 1.268 0 00-.688.186l.277.417a.776.776 0 01.408-.103l.003-.5zm.8.251c-.204-.162-.511-.253-.803-.251l.003.5a.834.834 0 01.488.142l.312-.391zm1.823 1.417l-1.826-1.419-.306.395 1.826 1.419.306-.395zm1.46 1.29a18.86 18.86 0 00-1.46-1.29l-.306.395c.398.309 1.052.887 1.411 1.248l.354-.353zm2.113 2.117l-2.114-2.117-.354.353 2.114 2.117.354-.353zm.261.646a.914.914 0 00-.261-.645l-.355.352c.075.075.116.18.116.295l.5-.002zm1.835-5.406l-2.815 3.374.384.32L21.29 8.6l-.384-.32zm.13-.407c0 .169-.056.32-.129.406l.382.323c.163-.192.247-.466.247-.73l-.5.001zm-.104-.365a.64.64 0 01.104.365h.5c0-.237-.067-.477-.2-.659l-.404.294zm-1.665-2.308l1.664 2.307.406-.292-1.664-2.307-.405.292zm-.36-.179a.45.45 0 01.36.177l.407-.289a.949.949 0 00-.767-.388v.5zm-.217.064a.386.386 0 01.217-.064v-.5c-.176 0-.35.05-.497.15l.28.414zm-1.623 1.094l1.623-1.094-.28-.415-1.623 1.094.28.415zm-1.262.357c.43-.002.881-.104 1.26-.356l-.277-.417c-.279.186-.627.27-.986.273l.003.5zm-1.001-.228c.314.164.661.227.999.228v-.5a1.67 1.67 0 01-.768-.171l-.231.443zm-1.59-.834l1.589.834.232-.443-1.588-.834-.233.443zm-.4-.083c.167 0 .313.036.399.082l.235-.441a1.376 1.376 0 00-.636-.141l.003.5zm-.6.17c.114-.09.355-.172.598-.17l.004-.5c-.328-.003-.688.101-.91.276l.308.394zM10.26 7.048l1.951-1.486-.303-.398L9.958 6.65l.303.398zm-.145.307c0-.125.053-.237.145-.308l-.304-.397a.883.883 0 00-.341.702l.5.003zm.07.225a.4.4 0 01-.07-.228l-.5.002a.9.9 0 00.157.509l.413-.283zm-.022-.028l-.368.339.368-.339zm.168.24l-.146-.211-.412.282.145.212.412-.282zm.36.185a.443.443 0 01-.36-.183l-.414.28a.943.943 0 00.775.403l-.002-.5zm.208-.059a.38.38 0 01-.209.06l.002.5a.88.88 0 00.48-.14l-.273-.42zm.66-.43l-.66.43.273.42.66-.43-.274-.42zm1.052-.295a1.94 1.94 0 00-1.052.295l.271.42a1.44 1.44 0 01.783-.215l-.002-.5zm1.216.393a1.994 1.994 0 00-1.214-.393l-.002.5c.331.001.654.092.912.29l.305-.397zm1.827 1.42L13.83 7.587l-.307.395 1.825 1.419.307-.395zm1.527 1.35a19.455 19.455 0 00-1.527-1.35l-.307.395c.435.338 1.087.915 1.48 1.309l.354-.354zm1.279 1.28l-1.279-1.28-.354.354 1.279 1.28.354-.353z" fill="#181E45"></path>
  </symbol>
  <symbol id="faq">
    <path d="M15.495 14.435a.391.391 0 00-.39.392v2.705c0 1.08-.875 1.96-1.95 1.96H8.944a.391.391 0 00-.39.391v.78l-.932-.936a.39.39 0 00-.357-.236H4.73c-1.075 0-1.95-.879-1.95-1.96v-6.036c0-1.08.875-1.96 1.95-1.96h3.94a.391.391 0 000-.784H4.73A2.74 2.74 0 002 11.496v6.037a2.74 2.74 0 002.73 2.743h2.335l1.602 1.61a.389.389 0 00.666-.277v-1.333h3.822a2.74 2.74 0 002.73-2.743v-2.705a.391.391 0 00-.39-.392z" class="faqIcon_svg__stroke-color"></path><path fillRule="evenodd" clipRule="evenodd" d="M15.327 2h.99C19.45 2 22 4.546 22 7.675c0 .907-.207 1.773-.617 2.575a5.731 5.731 0 01-1.494 1.84v2.258a.39.39 0 01-.668.277l-1.462-1.46c-.469.123-.953.185-1.442.185h-.99c-3.134 0-5.683-2.546-5.683-5.675 0-3.13 2.55-5.675 5.683-5.675zm3.78 9.899a.39.39 0 01.155-.312 4.856 4.856 0 001.956-3.912 4.903 4.903 0 00-4.901-4.894h-.99a4.903 4.903 0 00-4.901 4.894 4.903 4.903 0 004.901 4.894h.99c.49 0 .976-.072 1.441-.215a.391.391 0 01.392.097l.957.955V11.9z"></path><path d="M21.383 10.25l-.223-.114.223.114zm-1.494 1.84l-.157-.195-.093.075v.12h.25zm-.242 2.62l-.095-.232.095.231zm-.426-.085l-.176.177.176-.177zm-1.462-1.46l.177-.176-.102-.102-.138.037.063.242zm1.503-1.578l-.15-.2.15.2zm-1.504.767l.074.24-.074-.24zm.392.097l.176-.177-.176.177zm.957.955l-.177.177.427.426v-.603h-.25zM16.317 1.75h-.99v.5h.99v-.5zm5.933 5.925c0-3.268-2.662-5.925-5.933-5.925v.5c2.996 0 5.433 2.434 5.433 5.425h.5zm-.645 2.689a5.858 5.858 0 00.645-2.689h-.5c0 .867-.198 1.695-.59 2.462l.445.227zm-1.56 1.92a5.983 5.983 0 001.56-1.92l-.445-.228a5.482 5.482 0 01-1.428 1.759l.314.389zm.094 2.064V12.09h-.5v2.26h.5zm-.396.592a.64.64 0 00.396-.592h-.5a.14.14 0 01-.087.13l.19.462zm-.245.049a.642.642 0 00.245-.049l-.191-.462a.14.14 0 01-.054.01v.5zm-.453-.187a.642.642 0 00.453.187v-.5a.141.141 0 01-.1-.041l-.353.354zm-1.462-1.46l1.462 1.46.353-.354-1.462-1.46-.353.354zm-1.266.258c.51 0 1.015-.064 1.505-.192l-.126-.484a5.45 5.45 0 01-1.38.176v.5zm-.99 0h.99v-.5h-.99v.5zM9.394 7.675c0 3.268 2.662 5.925 5.933 5.925v-.5c-2.996 0-5.433-2.434-5.433-5.425h-.5zm5.933-5.925c-3.271 0-5.933 2.657-5.933 5.925h.5c0-2.99 2.437-5.425 5.433-5.425v-.5zm3.785 9.637a.64.64 0 00-.255.512h.5a.14.14 0 01.056-.112l-.301-.4zm1.856-3.712a4.606 4.606 0 01-1.856 3.712l.3.4a5.106 5.106 0 002.056-4.112h-.5zm-4.651-4.644a4.653 4.653 0 014.651 4.644h.5a5.153 5.153 0 00-5.151-5.144v.5zm-.99 0h.99v-.5h-.99v.5zm-4.651 4.644a4.653 4.653 0 014.651-4.644v-.5a5.153 5.153 0 00-5.151 5.144h.5zm4.651 4.644a4.653 4.653 0 01-4.651-4.644h-.5a5.153 5.153 0 005.151 5.144v-.5zm.99 0h-.99v.5h.99v-.5zm1.368-.204a4.659 4.659 0 01-1.368.204v.5a5.16 5.16 0 001.515-.226l-.147-.478zm.188-.028a.644.644 0 00-.188.028l.147.478a.142.142 0 01.041-.006v-.5zm.453.187a.641.641 0 00-.453-.187v.5c.037 0 .073.014.1.041l.353-.354zm.957.955l-.957-.955-.353.354.957.955.353-.354zm-.426-1.33v1.507h.5V11.9h-.5z"></path><path d="M17.538 6.222a1.664 1.664 0 00-1.536-1.543 1.639 1.639 0 00-1.246.444 1.673 1.673 0 00-.527 1.216.392.392 0 10.783 0c0-.246.098-.474.277-.642a.865.865 0 01.66-.234c.43.03.778.38.808.813a.873.873 0 01-.68.92.743.743 0 00-.583.728v.944a.392.392 0 10.783 0v-.912a1.654 1.654 0 001.26-1.734zM16.155 10.137a.385.385 0 00-.54 0 .385.385 0 000 .541.385.385 0 00.54 0 .385.385 0 000-.54z" class="faqIcon_svg__stroke-color"></path><path d="M12.691 14.102H4.43a.387.387 0 00-.392.382c0 .211.175.382.392.382h8.261a.387.387 0 00.392-.382.387.387 0 00-.392-.382z"></path><path d="M12.97 16.38a.385.385 0 00-.54 0 .385.385 0 000 .54.385.385 0 00.54 0 .384.384 0 000-.54z" class="faqIcon_svg__stroke-color"></path><path d="M11.162 16.267H4.43a.387.387 0 00-.392.383c0 .21.176.382.392.382h6.732a.387.387 0 00.392-.382.387.387 0 00-.392-.383zM10.271 11.936H4.557a.387.387 0 00-.391.383c0 .21.175.382.391.382h5.714a.387.387 0 00.392-.383.387.387 0 00-.392-.382z"></path>
  </symbol>
  <symbol id="trade">
    <path fillRule="evenodd" clipRule="evenodd" d="M10.366 8.817a4.817 4.817 0 119.634 0 4.817 4.817 0 01-9.634 0zm.567 0a4.25 4.25 0 108.5 0 4.25 4.25 0 00-8.5 0z"></path><path d="M10.366 8.817h-.2.2zm4.817 4.816v.2-.2zm-4.25-4.816h-.2.2zm4.25-4.25v-.2.2zm0-.767a5.017 5.017 0 00-5.017 5.017h.4A4.617 4.617 0 0115.183 4.2v-.4zM20.2 8.817A5.017 5.017 0 0015.183 3.8v.4a4.617 4.617 0 014.616 4.617h.4zm-5.017 5.016A5.017 5.017 0 0020.2 8.817h-.4a4.617 4.617 0 01-4.617 4.616v.4zm-5.017-5.016a5.022 5.022 0 005.017 5.016v-.4a4.622 4.622 0 01-4.617-4.617h-.4zm5.017 4.05a4.05 4.05 0 01-4.05-4.05h-.4a4.45 4.45 0 004.45 4.45v-.4zm4.05-4.05a4.05 4.05 0 01-4.05 4.05v.4a4.45 4.45 0 004.45-4.45h-.4zm-4.05-4.05a4.05 4.05 0 014.05 4.05h.4a4.45 4.45 0 00-4.45-4.45v.4zm-4.05 4.05a4.055 4.055 0 014.05-4.05v-.4a4.455 4.455 0 00-4.45 4.45h.4z"></path><path fillRule="evenodd" clipRule="evenodd" d="M3 16.183a4.817 4.817 0 119.633 0 4.817 4.817 0 01-9.633 0zm.567 0a4.25 4.25 0 108.5 0 4.25 4.25 0 00-8.5 0z"></path><path d="M3 16.183h-.2.2zM7.817 21v.2-.2zm-4.25-4.817h-.2.2zm4.25-4.25v-.2.2zm0-.766A5.017 5.017 0 002.8 16.183h.4a4.617 4.617 0 014.617-4.616v-.4zm5.016 5.016a5.017 5.017 0 00-5.016-5.016v.4a4.617 4.617 0 014.616 4.616h.4zM7.817 21.2a5.017 5.017 0 005.016-5.017h-.4A4.617 4.617 0 017.817 20.8v.4zM2.8 16.184A5.022 5.022 0 007.816 21.2v-.4A4.622 4.622 0 013.2 16.183h-.4zm5.017 4.05a4.05 4.05 0 01-4.05-4.05h-.4a4.45 4.45 0 004.45 4.45v-.4zm4.05-4.05a4.05 4.05 0 01-4.05 4.05v.4a4.45 4.45 0 004.45-4.45h-.4zm-4.05-4.05a4.05 4.05 0 014.05 4.05h.4a4.45 4.45 0 00-4.45-4.45v.4zm-4.05 4.05a4.055 4.055 0 014.05-4.05v-.4a4.455 4.455 0 00-4.45 4.45h.4zM8.383 15.9H7.25a.567.567 0 110-1.133h1.133c.313 0 .567.253.567.566h.566a1.133 1.133 0 00-.85-1.093v-.607H8.1v.567h-.567v-.567h-.567v.607a1.131 1.131 0 00.284 2.227h1.133a.567.567 0 110 1.133H7.25a.567.567 0 01-.567-.567h-.567c.002.515.351.965.85 1.093v.607h.567v-.566H8.1v.566h.566v-.607a1.131 1.131 0 00-.283-2.226z"></path><path d="M4.134 16.183H4.7a3.12 3.12 0 013.117-3.116V12.5a3.688 3.688 0 00-3.683 3.683zM10.933 16.183A3.12 3.12 0 017.816 19.3v.567a3.688 3.688 0 003.684-3.684h-.567z" class="exchangeIcon_svg__stroke-color"></path><path fillRule="evenodd" clipRule="evenodd" d="M16.848 9.386a1.129 1.129 0 00-.35-.57 1.13 1.13 0 00-.465-1.942v-.607h-.566v.566H14.9v-.566h-.567v.566h-.566a.283.283 0 00-.284.284v3.4c0 .156.127.283.284.283h.566v.567h.567V10.8h.567v.567h.566v-.607c.605-.155.97-.77.815-1.374zm-2.798.847V9.1h1.7a.567.567 0 010 1.133h-1.7zm0-2.833v1.133h1.7a.567.567 0 000-1.133h-1.7z"></path><path d="M16.499 8.817l-.132-.15-.171.15.171.15.132-.15zm.35.57l.193-.05-.194.05zm-.246-2.164l-.15.132.15-.132zm-.57-.35h-.2v.156l.15.038.05-.193zm0-.606h.2v-.2h-.2v.2zm-.566 0v-.2h-.2v.2h.2zm0 .566v.2h.2v-.2h-.2zm-.567 0h-.2v.2h.2v-.2zm0-.566h.2v-.2h-.2v.2zm-.567 0v-.2h-.2v.2h.2zm0 .566v.2h.2v-.2h-.2zm0 3.967h.2v-.2h-.2v.2zm0 .567h-.2v.2h.2v-.2zm.567 0v.2h.2v-.2h-.2zm0-.567v-.2h-.2v.2h.2zm.567 0h.2v-.2h-.2v.2zm0 .567h-.2v.2h.2v-.2zm.566 0v.2h.2v-.2h-.2zm0-.607l-.05-.194-.15.038v.156h.2zM14.05 9.1v-.2h-.2v.2h.2zm0 1.133h-.2v.2h.2v-.2zm0-1.7h-.2v.2h.2v-.2zm0-1.133v-.2h-.2v.2h.2zm2.317 1.567c.14.124.241.287.287.469l.388-.1a1.329 1.329 0 00-.411-.67l-.264.301zm.085-1.612a.93.93 0 01-.085 1.311l.264.301a1.33 1.33 0 00.122-1.876l-.3.264zm-.468-.288a.93.93 0 01.469.288l.3-.264a1.33 1.33 0 00-.67-.411l-.1.387zm-.15-.8v.607h.4v-.607h-.4zm-.367.2h.566v-.4h-.566v.4zm.2.366v-.566h-.4v.566h.4zm-.767.2h.567v-.4H14.9v.4zm-.2-.766v.566h.4v-.566h-.4zm-.367.2h.567v-.4h-.567v.4zm.2.366v-.566h-.4v.566h.4zm-.766.2h.566v-.4h-.566v.4zm-.084.084c0-.046.038-.084.084-.084v-.4a.483.483 0 00-.484.484h.4zm0 3.4v-3.4h-.4v3.4h.4zm.084.083a.083.083 0 01-.084-.083h-.4c0 .267.217.483.484.483v-.4zm.566 0h-.566v.4h.566v-.4zm.2.767V10.8h-.4v.567h.4zm.367-.2h-.567v.4h.567v-.4zm-.2-.367v.567h.4V10.8h-.4zm.767-.2H14.9v.4h.567v-.4zm.2.767V10.8h-.4v.567h.4zm.366-.2h-.566v.4h.566v-.4zm-.2-.407v.607h.4v-.607h-.4zm.821-1.324a.93.93 0 01-.67 1.13l.099.387a1.33 1.33 0 00.959-1.616l-.388.099zM13.85 9.1v1.133h.4V9.1h-.4zm1.9-.2h-1.7v.4h1.7v-.4zm.767.767a.767.767 0 00-.767-.767v.4c.203 0 .367.164.367.367h.4zm-.767.766a.767.767 0 00.767-.766h-.4a.367.367 0 01-.367.366v.4zm-1.7 0h1.7v-.4h-1.7v.4zm.2-1.9V7.4h-.4v1.133h.4zm1.5-.2h-1.7v.4h1.7v-.4zm.367-.366a.367.367 0 01-.367.366v.4a.767.767 0 00.767-.766h-.4zM15.75 7.6c.203 0 .367.164.367.367h.4a.767.767 0 00-.767-.767v.4zm-1.7 0h1.7v-.4h-1.7v.4z"></path><path fillRule="evenodd" clipRule="evenodd" d="M8.383 5.417H9.8c.156 0 .283.127.283.283v1.133a.283.283 0 01-.283.284H8.383A2.27 2.27 0 006.134 9.1h.55a.283.283 0 01.217.465l-1.417 1.7a.283.283 0 01-.436 0l-1.416-1.7A.283.283 0 013.85 9.1h.576a3.972 3.972 0 013.957-3.683zm0 1.133h1.134v-.567H8.383a3.404 3.404 0 00-3.4 3.4.283.283 0 01-.283.284h-.245l.812.974.811-.974h-.245a.283.283 0 01-.283-.284A2.836 2.836 0 018.383 6.55z"></path><path d="M8.383 5.417v-.2.2zm0 1.7v-.2.2zM6.134 9.1l-.198-.025-.029.225h.227v-.2zm.55 0v.2-.2zm.18.066l.129-.154-.128.154zm.037.399l.154.128-.154-.128zm-1.417 1.7l-.153-.128.153.128zm-.036.036l-.128-.153.128.153zm-.4-.036l.155-.128-.154.128zm-1.416-1.7l-.154.128.154-.128zm-.066-.182h-.2.2zM3.85 9.1v.2-.2zm.576 0v.2h.186l.014-.185-.2-.015zm5.09-2.55v.2h.2v-.2h-.2zm-1.133 0v-.2.2zm1.134-.567h.2v-.2h-.2v.2zm-1.134 0v-.2.2zm-3.4 3.4h-.2.2zm-.528.284v-.2h-.427l.273.328.154-.128zm.812.974l-.154.128.154.184.153-.184-.153-.128zm.811-.974l.154.128.273-.328h-.427v.2zm-.528-.284h-.2.2zM9.8 5.217H8.383v.4H9.8v-.4zm.483.483a.483.483 0 00-.483-.483v.4c.046 0 .083.037.083.083h.4zm0 1.133V5.7h-.4v1.133h.4zm-.483.484a.483.483 0 00.483-.484h-.4a.083.083 0 01-.083.084v.4zm-1.417 0H9.8v-.4H8.383v.4zm-2.05 1.808a2.07 2.07 0 012.05-1.808v-.4a2.47 2.47 0 00-2.447 2.158l.397.05zm.35-.225h-.549v.4h.55v-.4zm.31.112a.483.483 0 00-.31-.112v.4c.02 0 .039.007.054.02l.256-.308zm.062.68a.483.483 0 00-.062-.68l-.256.307c.035.03.04.082.01.118l.308.256zm-1.417 1.7l1.417-1.7-.308-.255-1.416 1.7.307.256zm-.063.063a.48.48 0 00.063-.063l-.307-.255a.078.078 0 01-.011.01l.255.308zm-.68-.063c.17.206.475.234.68.063l-.255-.307a.083.083 0 01-.117-.011l-.308.255zm-1.417-1.7l1.417 1.7.307-.255-1.416-1.7-.308.256zm-.112-.309c0 .113.04.223.112.31l.308-.256a.083.083 0 01-.02-.054h-.4zM3.85 8.9a.483.483 0 00-.484.483h.4c0-.046.038-.083.084-.083v-.4zm.576 0H3.85v.4h.576v-.4zm3.957-3.683a4.172 4.172 0 00-4.156 3.868l.399.03a3.772 3.772 0 013.758-3.498l-.001-.4zM9.517 6.35H8.383v.4h1.134v-.4zm-.2-.367v.567h.4v-.567h-.4zm-.934.2h1.134v-.4H8.383v.4zm-3.2 3.2a3.204 3.204 0 013.2-3.2v-.4a3.604 3.604 0 00-3.6 3.6h.4zm-.483.484a.483.483 0 00.483-.484h-.4a.083.083 0 01-.083.084v.4zm-.245 0H4.7v-.4h-.245v.4zm.965.646l-.812-.974-.307.256.812.974.307-.256zm.505-.974l-.812.974.307.256.812-.974-.307-.256zm-.092.328h.245v-.4h-.245v.4zm-.483-.484c0 .267.216.484.483.484v-.4a.083.083 0 01-.083-.084h-.4zM8.383 6.35A3.036 3.036 0 005.35 9.383h.4A2.636 2.636 0 018.383 6.75v-.4z"></path><path fillRule="evenodd" clipRule="evenodd" d="M17.951 14.019l1.417 1.7a.283.283 0 01-.218.464h-.576a3.972 3.972 0 01-3.957 3.684H13.2a.283.283 0 01-.283-.284V18.45c0-.156.127-.283.283-.283h1.417a2.27 2.27 0 002.249-1.984h-.549a.283.283 0 01-.218-.464l1.417-1.7a.293.293 0 01.436 0zm.066 1.881c0-.157.127-.283.283-.283h.245l-.811-.974-.812.974h.245c.156 0 .283.126.283.283a2.836 2.836 0 01-2.833 2.833h-1.133v.567h1.133a3.404 3.404 0 003.4-3.4z"></path><path d="M19.368 15.719l.154-.128-.154.128zm-1.416-1.7l.153-.129-.005-.005-.149.134zm1.482 1.881h.2-.2zm-.284.283v-.2.2zm-.576 0v-.2h-.186l-.014.186.2.014zm-3.957 3.684v.2-.2zm0-1.7v.2-.2zm2.249-1.984l.198.026.029-.226h-.227v.2zm-.549 0v-.2.2zm-.181-.065l-.128.153.128-.153zm-.037-.4l-.154-.127.154.128zm1.417-1.7l-.149-.134-.005.007.154.128zm.021-.02l-.134-.149.134.149zm.48 1.902h.2-.2zm.528-.283v.2h.427l-.273-.328-.154.128zm-.811-.974l.153-.129-.153-.184-.154.184.154.129zm-.812.974l-.154-.128-.273.328h.427v-.2zm.528.283h.2-.2zm-2.833 2.833v.2-.2zm-1.133 0v-.2h-.2v.2h.2zm0 .567h-.2v.2h.2v-.2zm1.133 0v.2-.2zm4.905-3.71l-1.417-1.7-.307.257 1.417 1.7.307-.256zm.112.31a.483.483 0 00-.112-.31l-.307.257c.012.015.019.034.019.053h.4zm-.484.483a.483.483 0 00.484-.483h-.4a.083.083 0 01-.084.083v.4zm-.576 0h.576v-.4h-.576v.4zm-3.957 3.684a4.172 4.172 0 004.156-3.87l-.399-.028a3.772 3.772 0 01-3.757 3.498v.4zm-1.417 0h1.417v-.4H13.2v.4zm-.483-.484c0 .267.216.484.483.484v-.4a.083.083 0 01-.083-.084h-.4zm0-1.133v1.133h.4V18.45h-.4zm.483-.483a.483.483 0 00-.483.483h.4c0-.046.037-.083.083-.083v-.4zm1.417 0H13.2v.4h1.417v-.4zm2.05-1.809a2.07 2.07 0 01-2.05 1.809v.4a2.47 2.47 0 002.447-2.158l-.397-.05zm-.35.225h.549v-.4h-.549v.4zm-.31-.112a.483.483 0 00.31.112v-.4a.084.084 0 01-.054-.019l-.256.307zm-.062-.68a.483.483 0 00.063.68l.256-.307a.083.083 0 01-.011-.117l-.308-.256zm1.417-1.7l-1.416 1.7.307.256 1.416-1.7-.307-.256zm.04-.042a.514.514 0 00-.035.035l.297.269a.116.116 0 01.007-.007l-.268-.297zm.698.036a.494.494 0 00-.697-.036l.268.297a.093.093 0 01.132.007l.297-.268zm.2 1.532a.483.483 0 00-.483.483h.4c0-.046.037-.083.083-.083v-.4zm.245 0H18.3v.4h.245v-.4zm-.965-.646l.812.974.307-.256-.812-.975-.307.257zm-.504.974l.811-.974-.307-.257-.812.975.308.256zm.091-.328h-.245v.4h.245v-.4zm.483.483a.483.483 0 00-.483-.483v.4c.046 0 .083.037.083.083h.4zm-3.033 3.033A3.036 3.036 0 0017.65 15.9h-.4a2.636 2.636 0 01-2.633 2.633v.4zm-1.133 0h1.133v-.4h-1.133v.4zm.2.367v-.567h-.4v.567h.4zm.933-.2h-1.133v.4h1.133v-.4zm3.2-3.2a3.204 3.204 0 01-3.2 3.2v.4a3.604 3.604 0 003.6-3.6h-.4z"></path><path d="M11.5 8.817h.567A3.12 3.12 0 0115.183 5.7v-.567A3.688 3.688 0 0011.5 8.817zM18.3 8.817a3.12 3.12 0 01-3.116 3.116v.567a3.687 3.687 0 003.683-3.683H18.3z"></path>
  </symbol>
  <symbol id="new-page">
    <ellipse cx="9" cy="9" rx="7" ry="7" fill="white"></ellipse><path d="M17.9291 8.73636L16.8647 6.89248V4.76367C16.8647 4.57527 16.7642 4.40114 16.601 4.30695L14.7572 3.24256L13.6928 1.39876C13.5986 1.2356 13.4245 1.13509 13.2361 1.13509H11.1073L9.2634 0.0706245C9.10028 -0.0235239 8.89929 -0.0235591 8.73609 0.0706245L6.89225 1.13505H4.76344C4.57503 1.13505 4.40091 1.23556 4.30672 1.39876L3.24237 3.24256L1.39853 4.30695C1.23533 4.40114 1.13482 4.57523 1.13482 4.76367V6.89248L0.0703936 8.73636C-0.02379 8.89952 -0.02379 9.10047 0.0703936 9.26363L1.13478 11.1075V13.2363C1.13478 13.4247 1.2353 13.5989 1.39849 13.693L3.24233 14.7574L4.30672 16.6012C4.40091 16.7644 4.575 16.8649 4.76344 16.8649H6.89229L8.73613 17.9294C8.81769 17.9764 8.90875 18 8.9998 18C9.09086 18 9.18187 17.9764 9.26344 17.9294L11.1073 16.8649H13.2361C13.4245 16.8649 13.5986 16.7644 13.6928 16.6013L14.7572 14.7575L16.601 13.6931C16.7642 13.5989 16.8647 13.4248 16.8647 13.2364V11.1075L17.9291 9.26367C18.0233 9.10047 18.0233 8.89952 17.9291 8.73636V8.73636ZM6.42046 10.6945C6.42046 10.9269 6.26834 11.1319 6.04594 11.1992C5.82185 11.267 5.58237 11.179 5.45433 10.987L4.16107 9.04714V10.6945C4.16107 10.9858 3.92496 11.2219 3.63373 11.2219C3.34249 11.2219 3.10638 10.9858 3.10638 10.6945V7.30546C3.10638 7.07308 3.2585 6.86812 3.4809 6.80076C3.70334 6.73347 3.94359 6.8196 4.07251 7.01296L5.36577 8.95285V7.30546C5.36577 7.01423 5.60188 6.77812 5.89311 6.77812C6.18435 6.77812 6.42046 7.01423 6.42046 7.30546V10.6945ZM8.71736 8.47265C9.00859 8.47265 9.2447 8.70876 9.2447 9C9.2447 9.29123 9.00859 9.52734 8.71736 9.52734H8.11502V10.1672H9.28221C9.57345 10.1672 9.80955 10.4033 9.80955 10.6945C9.80955 10.9858 9.57345 11.2219 9.28221 11.2219H7.58768C7.29644 11.2219 7.06034 10.9858 7.06034 10.6945V7.30546C7.06034 7.01423 7.29644 6.77812 7.58768 6.77812H9.28221C9.57345 6.77812 9.80955 7.01423 9.80955 7.30546C9.80955 7.5967 9.57345 7.83281 9.28221 7.83281H8.11502V8.47265H8.71736ZM15.1598 7.43336L14.3125 10.8224C14.2557 11.0499 14.0554 11.2125 13.8212 11.2215C13.8144 11.2218 13.8075 11.2219 13.8008 11.2219C13.5746 11.2219 13.3726 11.0773 13.3006 10.8613L12.6712 8.97307L12.0418 10.8613C11.9677 11.0837 11.7556 11.2299 11.5213 11.2215C11.287 11.2125 11.0868 11.0499 11.0299 10.8224L10.1827 7.43336C10.112 7.15081 10.2838 6.8645 10.5664 6.79391C10.849 6.72314 11.1352 6.89502 11.2059 7.1776L11.6139 8.8098L12.1709 7.13875C12.2427 6.92342 12.4442 6.77816 12.6712 6.77816C12.8981 6.77816 13.0997 6.92342 13.1714 7.13875L13.7285 8.8098L14.1365 7.1776C14.2071 6.89505 14.4935 6.72321 14.776 6.79391C15.0586 6.8645 15.2304 7.15078 15.1598 7.43336V7.43336Z" fill="#00c6ff"></path>
  </symbol>
</svg>
