<svg width="47" height="47" viewBox="0 0 47 47" fill="none" xmlns="http://www.w3.org/2000/svg">
<path d="M46 13.0192L42.6913 21.9225H26.8072L23.4985 13.0192H46Z" fill="#00AF7E"/>
<path d="M43.8591 44.1838L35.0797 44.1796L26.807 21.9225L23.4983 13.0192L20.1897 21.9225L11.9159 44.1838H3.13232L11.5905 21.9225L14.9727 13.0192L18.778 3H28.2168L32.024 13.0192L35.4062 21.9225L43.8591 44.1838Z" fill="#141A23"/>
<path d="M23.4985 13.0192L20.1898 21.9225H4.30869L1 13.0192H23.4985Z" fill="#00AF7E"/>
<path d="M28.4613 26.3741L31.77 35.2774H4.30869L1 26.3741H28.4613Z" fill="#00AF7E"/>
<path d="M46 26.3741L42.6913 35.2774H40.4798L37.0977 26.3741H46Z" fill="#00AF7E"/>
</svg>
