<svg width="47" height="47" viewBox="0 0 47 47" fill="none" xmlns="http://www.w3.org/2000/svg">
<rect x="1" y="1" width="45" height="45" rx="6" fill="url(#paint0_linear)"/>
<path fill-rule="evenodd" clip-rule="evenodd" d="M17.5221 27.0345V22.7706C17.5221 21.5611 16.8746 20.9869 15.7873 20.9869C14.8832 20.9869 14.1013 21.5245 13.7592 22.062C13.5393 21.3901 12.9895 20.9869 12.1221 20.9869C11.218 20.9869 10.4361 21.5489 10.1917 21.9032V21.1335H8.64014V27.0345H10.1917V23.0639C10.4239 22.734 10.8759 22.3675 11.4135 22.3675C12.0488 22.3675 12.2931 22.7584 12.2931 23.3082V27.0345H13.8569V23.0516C14.0768 22.734 14.5289 22.3675 15.0786 22.3675C15.7139 22.3675 15.9583 22.7584 15.9583 23.3082V27.0345H17.5221ZM21.7859 27.1811C19.8434 27.1811 18.6705 25.7639 18.6705 24.0779C18.6705 22.4041 19.8434 20.9869 21.7859 20.9869C23.7407 20.9869 24.9136 22.4041 24.9136 24.0779C24.9136 25.7639 23.7407 27.1811 21.7859 27.1811ZM21.7859 25.8005C22.7511 25.8005 23.3009 25.0064 23.3009 24.0779C23.3009 23.1616 22.7511 22.3675 21.7859 22.3675C20.8208 22.3675 20.2832 23.1616 20.2832 24.0779C20.2832 25.0064 20.8208 25.8005 21.7859 25.8005ZM31.5964 27.0345V22.8684C31.5964 21.72 30.9733 20.9869 29.6783 20.9869C28.7131 20.9869 27.9923 21.4512 27.6136 21.9032V21.1335H26.062V27.0345H27.6136V23.0639C27.8702 22.7096 28.3466 22.3675 28.9575 22.3675C29.6172 22.3675 30.0448 22.6485 30.0448 23.467V27.0345H31.5964ZM35.8725 27.1811C33.9299 27.1811 32.7571 25.7639 32.7571 24.0779C32.7571 22.4041 33.9299 20.9869 35.8725 20.9869C37.8272 20.9869 39.0001 22.4041 39.0001 24.0779C39.0001 25.7639 37.8272 27.1811 35.8725 27.1811ZM35.8725 25.8005C36.8376 25.8005 37.3874 25.0064 37.3874 24.0779C37.3874 23.1616 36.8376 22.3675 35.8725 22.3675C34.9073 22.3675 34.3698 23.1616 34.3698 24.0779C34.3698 25.0064 34.9073 25.8005 35.8725 25.8005Z" fill="white"/>
<defs>
<linearGradient id="paint0_linear" x1="23.5" y1="1" x2="23.5" y2="46" gradientUnits="userSpaceOnUse">
<stop stop-color="#3F434C"/>
<stop offset="1" stop-color="#191C21"/>
</linearGradient>
</defs>
</svg>
