<svg width="47" height="47" viewBox="0 0 47 47" fill="none" xmlns="http://www.w3.org/2000/svg">
<circle cx="23.5" cy="23.5" r="22.5" fill="#3BA9F4"/>
<path d="M16.0608 36.2267V10.7733H24.0841C27.1406 10.7733 29.1054 10.886 30.0333 11.1675C31.4524 11.5617 32.6532 12.4064 33.581 13.6453C34.5089 14.9405 35.0001 16.5735 35.0001 18.6008C35.0001 20.1775 34.7272 21.4727 34.1814 22.5427C33.6356 23.6126 32.9261 24.4573 32.1073 25.0767C31.2341 25.6962 30.4154 26.0904 29.5421 26.2593C28.3413 26.4846 26.6493 26.5972 24.357 26.5972H21.0822V36.2267H16.0608ZM21.0276 15.1094V22.3174H23.7566C25.7215 22.3174 27.0314 22.2048 27.6864 21.9232C28.3413 21.6417 28.8871 21.2475 29.2692 20.6844C29.6512 20.1212 29.815 19.4455 29.815 18.7134C29.815 17.8124 29.5421 17.024 28.9963 16.4046C28.4505 15.7852 27.7955 15.4473 26.9768 15.2783C26.3764 15.1657 25.1757 15.1094 23.3745 15.1094H21.0276Z" fill="white"/>
</svg>
