<svg width="47" height="47" viewBox="0 0 47 47" fill="none" xmlns="http://www.w3.org/2000/svg">
<path fill-rule="evenodd" clip-rule="evenodd" d="M23.5002 1.25497C26.4214 1.25497 29.3141 1.83036 32.013 2.94828C34.7119 4.06619 37.1641 5.70475 39.2298 7.77039C41.2954 9.83603 42.934 12.2883 44.0519 14.9872C45.1698 17.6861 45.7452 20.5787 45.7452 23.5C45.7452 27.8996 44.4405 32.2005 41.9962 35.8587C39.5519 39.5168 36.0777 42.368 32.013 44.0517C27.9482 45.7354 23.4755 46.1759 19.1604 45.3176C14.8453 44.4593 10.8816 42.3406 7.77055 39.2296C4.65953 36.1186 2.5409 32.1549 1.68257 27.8398C0.82424 23.5247 1.26477 19.0519 2.94844 14.9872C4.63211 10.9224 7.48331 7.44825 11.1415 5.00394C14.7997 2.55962 19.1005 1.25497 23.5002 1.25497Z" fill="#F01010"/>
<path fill-rule="evenodd" clip-rule="evenodd" d="M22.553 16.2881H21.5936H20.6685C20.36 16.2532 19.983 16.2532 19.6067 16.2194C19.5043 16.2532 19.4688 16.3573 19.4346 16.4938C19.4006 16.6313 19.4346 16.7341 19.5043 16.8366L19.9153 16.8711C20.4281 16.9729 20.8049 17.0758 21.0461 17.1795C21.2849 17.3159 21.4557 17.5561 21.5253 17.8649C21.5936 18.1731 21.6276 18.5836 21.5936 19.0982C21.5586 19.8175 21.5253 20.6736 21.491 21.6673C21.4557 22.6622 21.3879 23.6901 21.3189 24.7525C21.2511 26.3956 21.1035 30.3986 20.657 31.584C20.5535 31.8579 20.3828 32.0297 20.1769 32.1339C19.9363 32.2354 19.6614 32.3383 19.3189 32.3738L18.7691 32.4421C18.6668 32.5099 18.6319 32.614 18.6668 32.7853C18.6668 32.8882 18.7007 32.9903 18.8036 33.0938C19.2495 33.0599 19.6614 33.0251 20.1076 32.9903H21.4125H22.8191C23.3333 33.0251 23.7798 33.0599 24.1912 33.0938C24.2948 33.0251 24.3632 32.9224 24.3632 32.7853C24.3632 32.647 24.329 32.5449 24.2252 32.4421L23.265 32.3738C22.9557 32.3383 22.7156 32.2702 22.5444 32.1339C22.4583 32.0641 22.3894 31.9688 22.3377 31.8521C22.1352 31.3652 22.1311 30.5408 22.1417 30.0292C22.1635 28.9668 22.1764 27.9051 22.2101 26.8427C22.2447 25.7803 22.2788 24.8544 22.3125 24.0667C22.3459 23.3471 22.4163 22.5924 22.4496 21.8389C22.4841 21.0857 22.5177 20.3311 22.553 19.5776H22.621C22.8956 20.1595 23.1702 20.7427 23.4098 21.3933C23.6843 22.0105 23.958 22.6275 24.2315 23.2105L26.5276 28.1092C26.7343 28.5217 26.9737 29.0358 27.247 29.6524C27.5562 30.3033 27.8635 30.9196 28.1385 31.5361C28.2833 31.8626 28.4087 32.1692 28.5153 32.4565C28.5427 32.4565 28.7349 33.088 28.7561 33.1615C28.8882 33.2955 29.1044 33.2918 29.2366 33.1615C29.4496 32.6509 29.6722 32.1344 29.9201 31.6401C30.569 30.1831 31.2459 28.7919 32.0105 27.3908L34.238 22.9704C34.4097 22.5924 34.5804 22.1816 34.8204 21.7363C35.0604 21.2568 35.2998 20.8113 35.5062 20.4346C35.677 20.0231 35.8139 19.7491 35.8817 19.646H35.9166L35.9859 30.2358C36.0192 30.7833 35.9859 31.1931 35.9515 31.5014C35.9239 31.7467 35.8551 31.9797 35.6194 32.0992C35.4815 32.2702 35.2074 32.3383 34.7614 32.3738L34.0061 32.4421C33.9375 32.5099 33.9035 32.614 33.9375 32.7853C33.9375 32.8882 33.9723 32.9903 34.0755 33.0938C34.5895 33.0599 35.1378 33.0251 35.6528 32.9903H37.1636H38.6051C39.119 33.0251 39.6336 33.0599 40.1495 33.0938C40.2527 33.0251 40.2862 32.9224 40.2862 32.7853C40.3204 32.647 40.2862 32.5449 40.2178 32.4421L39.3943 32.3738C39.0165 32.3383 38.7422 32.2354 38.5696 32.0637C38.3997 31.8928 38.2621 31.6868 38.2277 31.412C38.1928 31.1041 38.1582 30.7252 38.1582 30.314C38.088 29.0392 38.0406 27.7437 38.0073 26.466C37.9724 25.0941 37.9037 23.7928 37.8703 22.5603V19.3035C37.8703 18.7214 37.9037 18.2757 37.9724 17.9325C38.0421 17.6249 38.2132 17.351 38.4525 17.1795C38.693 17.0427 39.1034 16.9391 39.6516 16.8711L40.1661 16.8366C40.2353 16.7677 40.2688 16.6653 40.2353 16.4938C40.2353 16.3904 40.2004 16.2881 40.1324 16.2194C39.7206 16.2532 39.3092 16.2532 38.9326 16.2881H37.8703H37.0825C36.7733 16.2532 36.4301 16.2532 35.9859 16.2194C35.9515 16.8011 35.7458 17.4535 35.4372 18.2074C35.0604 18.9942 34.6156 19.9552 34.0672 21.0857L31.6679 25.9167C31.0457 27.2322 30.479 28.4838 29.7168 29.7312H29.6483C29.0418 28.5867 28.4829 27.3992 27.9328 26.226L25.0205 20.3999C24.644 19.5776 24.3009 18.7899 24.0269 18.0702C23.7866 17.351 23.6843 16.7341 23.7183 16.2194C23.3073 16.2532 22.9299 16.2532 22.553 16.2881ZM8.49237 29.3141C8.49237 30.187 8.45789 30.8513 8.38807 31.306C8.31898 32.187 7.73766 32.4757 6.91791 32.5322L6.39278 32.6019C6.22361 32.7714 6.23663 33.1388 6.42911 33.2661C7.51184 33.1992 8.4911 33.1607 9.57735 33.1607C10.7357 33.1607 11.8154 33.2117 12.9704 33.2661C13.0401 33.1961 13.0763 33.0915 13.111 32.9517C13.111 32.7771 13.0763 32.6711 13.0059 32.6019L12.3061 32.5322C11.7462 32.496 11.3616 32.391 11.1518 32.216C11.1392 32.207 11.1267 32.1976 11.1144 32.1881C10.9026 32.0121 10.7513 31.7436 10.6876 31.3277C10.6182 30.8737 10.5831 30.2103 10.6182 29.3386V26.8917C9.84947 26.9269 9.15089 26.8917 8.5216 26.7869L8.49237 29.3141ZM6.25064 16.5522C6.21618 16.6915 6.28641 16.796 6.39111 16.9017L7.29958 17.005C7.68346 17.041 7.96331 17.1454 8.13763 17.3204C8.31205 17.4596 8.41751 17.7047 8.45174 18.089C8.48728 18.4726 8.5216 19.0328 8.5216 19.765V24.9352C9.22049 24.9709 9.9188 24.9709 10.6182 24.9352V17.8088C10.5831 17.5298 10.6182 17.3204 10.6876 17.1454C10.7224 17.041 10.8623 16.9352 11.0367 16.9017C11.2462 16.8664 11.5963 16.8664 12.0502 16.8664C13.3773 16.9017 14.3905 17.2501 15.124 17.9838C15.8227 18.7168 16.1717 19.7304 16.1717 20.9888C16.2079 22.1061 15.9281 23.0494 15.334 23.8173C14.8099 24.4823 14.0415 24.9709 12.993 25.2149C11.9806 25.4596 10.5485 25.5648 8.62669 25.5289C6.94947 25.4958 5.13323 25.3902 3.14209 25.1808C5.34342 25.6349 6.98463 25.9487 8.03354 26.0533C9.74423 26.264 11.4209 26.228 12.993 25.9843C13.7964 25.8785 14.5303 25.67 15.1942 25.4252C15.8227 25.146 16.4519 24.7618 17.1158 24.3072C17.4998 24.0278 17.8489 23.5723 18.1639 22.9794C18.4087 22.4208 18.5481 21.7569 18.5825 20.9527C18.5481 20.0793 18.3383 19.3125 17.9545 18.6475C17.57 17.9838 17.1158 17.4596 16.5216 17.0766C15.9281 16.7268 15.1942 16.4461 14.3559 16.2715C13.5523 16.1323 12.6089 16.0623 11.5263 16.0623C10.4778 16.0623 9.53483 16.0623 8.6966 16.0968C7.85815 16.1323 7.08971 16.1671 6.42519 16.2367C6.32094 16.3075 6.25064 16.412 6.25064 16.5522Z" fill="white"/>
</svg>
