<svg width="47" height="47" viewBox="0 0 47 47" fill="none" xmlns="http://www.w3.org/2000/svg">
<path d="M23.5002 28.7257C26.3179 28.7257 28.6022 26.4415 28.6022 23.6237C28.6022 20.806 26.3179 18.5218 23.5002 18.5218C20.6824 18.5218 18.3982 20.806 18.3982 23.6237C18.3982 26.4415 20.6824 28.7257 23.5002 28.7257Z" fill="#FFD833"/>
<path d="M19.4082 19.1505C17.8837 16.7999 16.9339 14.1235 16.6356 11.3377C14.3268 9.41376 10.6541 8.46894 5.61736 8.5033C5.56803 9.72408 5.64401 10.9467 5.84411 12.152C6.87482 17.759 11.5336 21.3356 17.0273 22.1601L17.5117 22.222C17.8178 21.0295 18.4792 19.9583 19.4082 19.1505Z" fill="#F54182"/>
<path d="M9.71951 31.0757C8.2834 33.2746 7.36607 36.4148 6.96753 40.4964C9.00261 40.8478 11.0904 40.7422 13.0796 40.1872C14.6897 39.7017 16.1766 38.8756 17.4395 37.765L17.7281 37.4764C19.7767 35.2446 21.1617 32.4853 21.7272 29.5091C20.8105 29.2398 19.9748 28.7476 19.2948 28.0764C16.4636 29.9882 13.1354 31.0307 9.71951 31.0757Z" fill="#F54182"/>
<path d="M8.71976 20.2946C8.38926 20.0258 8.07276 19.7403 7.77151 19.4391C4.90974 20.3648 2.2658 21.8621 0 23.8402C1.15375 25.5586 2.67898 26.9958 4.46295 28.0455C5.9333 28.8898 7.58284 29.3738 9.27634 29.4575H9.72985C12.7941 29.4157 15.7776 28.469 18.3053 26.7365C17.781 25.859 17.4901 24.8619 17.4601 23.8402C14.2807 23.4663 11.2611 22.2413 8.71976 20.2946Z" fill="#F54182"/>
<path d="M27.53 28.4165C29.0249 30.8582 29.9318 33.614 30.1789 36.4663C32.4534 38.4178 36.1158 39.4141 41.1662 39.4553C41.5888 39.4553 40.7437 34.374 40.6097 33.9514C39.0327 29.0143 34.4254 26.0253 29.4162 25.3347C29.1083 26.5268 28.4515 27.5999 27.53 28.4165Z" fill="#F54182"/>
<path d="M37.3838 16.4088C38.8474 14.2031 39.8094 11.0217 40.2698 6.8645C39.2241 6.69095 38.1654 6.60818 37.1055 6.61713C36.0184 6.67141 34.9435 6.8725 33.9103 7.21494C29.1897 8.77131 26.3037 13.09 25.3555 17.8209C26.2694 18.1145 27.0975 18.6277 27.7673 19.3154C30.6141 17.4153 33.9611 16.4036 37.3838 16.4088Z" fill="#F54182"/>
<path d="M38.2286 27.3961C38.5587 27.6763 38.8719 27.9757 39.1666 28.2928C42.0497 27.3836 44.7158 25.8927 46.9999 23.9124C45.8731 22.16 44.3695 20.6811 42.5988 19.5834C41.1436 18.7078 39.5006 18.1919 37.806 18.0786H37.3525C34.2825 18.0965 31.2857 19.0177 28.7358 20.7275C29.2548 21.6356 29.5349 22.6604 29.5501 23.7062C32.7219 24.1341 35.7199 25.4087 38.2286 27.3961Z" fill="#F54182"/>
<path d="M18.1198 10.843V10.8945C18.4773 13.4855 19.3612 15.9759 20.7172 18.2125C21.56 17.7594 22.5019 17.5222 23.4588 17.522H23.5722C24.2019 14.2419 25.7372 11.2035 28.0042 8.75068V8.67853C27.5713 6.07428 26.0528 3.18144 23.4485 0C21.7678 1.21022 20.3627 2.76291 19.3257 4.55571C18.5914 5.8646 18.1319 7.30959 17.9755 8.80222C17.9652 8.90159 17.9652 9.00175 17.9755 9.10112C17.981 9.68449 18.0292 10.2667 18.1198 10.843Z" fill="#F54182"/>
<path d="M28.927 36.2959C28.927 36.1122 28.8752 35.9388 28.8441 35.7653C28.4219 33.3787 27.5654 31.0867 26.3157 29C25.4684 29.4367 24.5261 29.6644 23.5697 29.6633H23.4557C22.825 32.9144 21.2813 35.9263 19 38.3571V38.4184C19.5112 41.0034 21.0724 43.8639 23.6837 47C24.5868 46.3241 25.4261 45.5694 26.1914 44.7449C26.8798 43.9964 27.4556 43.1545 27.9011 42.2449C28.8114 40.3986 29.1673 38.3347 28.927 36.2959Z" fill="#F54182"/>
</svg>
