<svg width="47" height="47" viewBox="0 0 47 47" fill="none" xmlns="http://www.w3.org/2000/svg">
<path d="M30.2828 7C20.9558 7 13.5669 14.3431 13.5669 23.3444C13.5669 32.3456 21.0769 39.6887 30.2828 39.6887C39.4886 39.6887 46.9986 32.3456 46.9986 23.3444C47.1198 14.3431 39.4886 7 30.2828 7ZM30.2828 29.3846C26.8911 29.3846 23.984 26.6606 23.984 23.3444C23.984 20.0281 26.77 17.304 30.2828 17.304C33.7955 17.304 36.5815 20.0281 36.5815 23.3444C36.4604 26.6606 33.7955 29.3846 30.2828 29.3846Z" fill="#8B3FFD"/>
<path d="M13.5666 11.856V35.6619H7.63114L0 11.856H13.5666Z" fill="#8B3FFD"/>
</svg>
