<svg width="47" height="47" viewBox="0 0 47 47" fill="none" xmlns="http://www.w3.org/2000/svg">
<g clip-path="url(#clip0)">
<path d="M20.385 46.6907H16.5603L18.9655 32.232H22.7902L20.385 46.6907Z" fill="#0066B3"/>
<path d="M13.3272 32.232L9.66023 42.1675L9.22651 40.0412L7.92533 33.5077C7.92533 33.5077 7.76761 32.1933 6.11158 32.1933H0.078859L0 32.4639C0 32.4639 1.85319 32.8505 4.02181 34.1263L7.37332 46.6907H11.3557L17.4673 32.232H13.3272Z" fill="#0066B3"/>
<path d="M43.4907 46.6907H46.9999L43.9244 32.232H40.8489C39.4294 32.232 39.0746 33.3144 39.0746 33.3144L33.3967 46.6907H37.3791L38.1677 44.5258H43.057L43.4907 46.6907ZM39.2717 41.549L41.2826 36.1366L42.4261 41.549H39.2717Z" fill="#0066B3"/>
<path d="M33.673 35.7113L34.225 32.6186C34.225 32.6186 32.5295 32 30.7552 32C28.8626 32 24.3282 32.8119 24.3282 36.7938C24.3282 40.5438 29.6511 40.5825 29.6511 42.5541C29.6511 44.5258 24.8802 44.1778 23.303 42.9407L22.751 46.1881C22.751 46.1881 24.4464 47 27.0882 47C29.6906 47 33.673 45.6856 33.673 42.0515C33.673 38.3015 28.3105 37.9536 28.3105 36.2912C28.3105 34.5902 32.0169 34.8222 33.673 35.7113Z" fill="#0066B3"/>
<path d="M9.22651 40.0026L7.92533 33.5077C7.92533 33.5077 7.76761 32.1933 6.11158 32.1933H0.078859L0 32.4639C0 32.4639 2.91778 33.0438 5.67785 35.2861C8.35906 37.3737 9.22651 40.0026 9.22651 40.0026Z" fill="#FAA634"/>
<path d="M29.3134 2.78055H17.6868V23.2194H29.3134V2.78055Z" fill="#FF5F00"/>
<path d="M18.4249 13C18.4249 8.84719 20.418 5.16386 23.4816 2.78052C21.2301 1.04719 18.388 -3.05176e-05 15.2876 -3.05176e-05C7.94249 -3.05176e-05 2 5.81386 2 13C2 20.1861 7.94249 26 15.2876 26C18.388 26 21.2301 24.9527 23.4816 23.2194C20.418 20.8722 18.4249 17.1527 18.4249 13Z" fill="#EB001B"/>
<path d="M45.0001 13C45.0001 20.1861 39.0576 26 31.7126 26C28.6121 26 25.7701 24.9528 23.5186 23.2194C26.619 20.8361 28.5752 17.1528 28.5752 13C28.5752 8.84722 26.5821 5.16389 23.5186 2.78055C25.7701 1.04722 28.6121 0 31.7126 0C39.0576 0 45.0001 5.85 45.0001 13Z" fill="#F79E1B"/>
</g>
<defs>
<clipPath id="clip0">
<rect width="47" height="47" fill="white"/>
</clipPath>
</defs>
</svg>
