<svg width="50" height="50" viewBox="0 0 50 50" fill="none" xmlns="http://www.w3.org/2000/svg">
<rect width="50" height="50" rx="12" fill="#D2D2D2"/>
<path d="M12.7435 25.5709C12.7182 25.3572 12.6985 25.1406 12.6985 24.9184C12.6985 21.8528 15.1932 19.3581 18.2588 19.3581L33.2775 19.3581L33.2775 24.3813L41.1104 18.0503L33.2775 11.7222L33.2775 16.4163L18.2588 16.4163C13.5704 16.4163 9.75379 20.23 9.75379 24.9213C9.75379 25.8691 9.91411 26.8028 10.2291 27.7028L12.7435 25.5709Z" fill="white"/>
<path d="M37.2601 24.4291C37.2882 24.6428 37.3023 24.8594 37.3023 25.0816C37.3023 28.1472 34.8048 30.6447 31.7391 30.6447L16.7204 30.6447L16.7204 25.6188L8.88757 31.9497L16.7204 38.2778L16.7204 33.5866L31.7391 33.5866C36.4304 33.5866 40.2441 29.77 40.2441 25.0816C40.2441 24.1366 40.0866 23.2028 39.7716 22.3L37.2601 24.4291Z" fill="white"/>
</svg>
