<svg width="47" height="47" viewBox="0 0 47 47" fill="none" xmlns="http://www.w3.org/2000/svg">
<path d="M45.3416 28.9165C42.3365 40.9702 30.1281 48.3059 18.073 45.3C6.02284 42.2949 -1.31287 30.0858 1.69369 18.0328C4.69745 5.97775 16.9058 -1.35865 28.9574 1.64651C41.0118 4.65166 48.3468 16.8621 45.3416 28.9165Z" fill="url(#paint0_linear)"/>
<path d="M33.4145 20.2945C33.8624 17.3006 31.5829 15.6911 28.4659 14.6174L29.477 10.5618L27.0084 9.94658L26.024 13.8953C25.375 13.7336 24.7084 13.581 24.0461 13.4299L25.0375 9.45509L22.5702 8.83986L21.5584 12.8941C21.0213 12.7717 20.4939 12.6508 19.982 12.5235L19.9848 12.5109L16.5803 11.6608L15.9236 14.2975C15.9236 14.2975 17.7552 14.7173 17.7166 14.7433C18.7164 14.9929 18.8971 15.6545 18.8669 16.1791L17.7152 20.7993C17.7841 20.8169 17.8734 20.8422 17.9718 20.8816C17.8895 20.8612 17.8016 20.8387 17.7109 20.8169L16.0966 27.2892C15.9742 27.5929 15.6641 28.0485 14.9652 27.8756C14.9898 27.9114 13.1709 27.4277 13.1709 27.4277L11.9453 30.2535L15.1579 31.0544C15.7555 31.2042 16.3413 31.3609 16.9178 31.5086L15.8962 35.6106L18.362 36.2259L19.3738 32.1674C20.0474 32.3502 20.7013 32.519 21.3412 32.6779L20.3329 36.7174L22.8016 37.3326L23.8232 33.2383C28.0328 34.0349 31.1983 33.7136 32.5307 29.9062C33.6044 26.8406 32.4773 25.0722 30.2624 23.9191C31.8754 23.5471 33.0904 22.4861 33.4145 20.2945ZM27.7741 28.2039C27.0112 31.2695 21.8495 29.6123 20.1761 29.1967L21.5317 23.7623C23.2052 24.1799 28.5714 25.0068 27.7741 28.2039ZM28.5377 20.2502C27.8416 23.0388 23.5455 21.622 22.1519 21.2746L23.3809 16.3457C24.7745 16.6931 29.2626 17.3413 28.5377 20.2502Z" fill="white"/>
<defs>
<linearGradient id="paint0_linear" x1="1.01978" y1="0.973196" x2="1.01978" y2="45.9737" gradientUnits="userSpaceOnUse">
<stop stop-color="#F9AA4B"/>
<stop offset="1" stop-color="#F7931A"/>
</linearGradient>
</defs>
</svg>
