<svg width="16" height="16" viewBox="0 0 16 16" fill="none" xmlns="http://www.w3.org/2000/svg"><g clip-path="url(#clip0)"><path fill-rule="evenodd" clip-rule="evenodd" d="M12.364 -0.000976562V2.181H10.1821V3.63493H12.364V5.81691H13.8187V3.63493H16V2.181H13.8187V-0.000976562H12.364Z" fill="white"></path><path fill-rule="evenodd" clip-rule="evenodd" d="M1.45403 13.8203C1.45403 12.6173 2.43301 11.6383 3.63601 11.6383H8.7273C9.9303 11.6383 10.9093 12.6173 10.9093 13.8203V14.5476H1.45403V13.8203ZM-0.000671387 13.8193V16.0012H12.3639V13.8193C12.3639 11.814 10.7325 10.1826 8.72725 10.1826H3.63596C1.63072 10.1826 -0.000671387 11.814 -0.000671387 13.8193V13.8193Z" fill="white"></path><path fill-rule="evenodd" clip-rule="evenodd" d="M6.18155 4.3629C7.18454 4.3629 7.99987 5.17896 7.99987 6.18122C7.99987 7.18347 7.18454 7.99953 6.18155 7.99953C5.17857 7.99953 4.36323 7.18347 4.36323 6.18122C4.36323 5.17896 5.17857 4.3629 6.18155 4.3629M6.18148 9.45415C7.98598 9.45415 9.45445 7.9864 9.45445 6.18118C9.45445 4.37668 7.98598 2.9082 6.18148 2.9082C4.37698 2.9082 2.90851 4.37668 2.90851 6.18118C2.90851 7.9864 4.37698 9.45415 6.18148 9.45415" fill="white"></path></g><defs><clipPath id="clip0"><rect width="16" height="16" fill="white"></rect></clipPath></defs></svg>