<svg width="24" height="24" viewBox="0 0 24 24" fill="none" xmlns="http://www.w3.org/2000/svg"><path d="M12 3C12.4822 3 12.9447 3.18964 13.2856 3.52721C13.6266 3.86477 13.8182 4.32261 13.8182 4.8C13.8182 5.466 13.4545 6.051 12.9091 6.357V7.5H13.8182C15.5059 7.5 17.1245 8.16375 18.318 9.34523C19.5114 10.5267 20.1818 12.1291 20.1818 13.8H21.0909C21.332 13.8 21.5632 13.8948 21.7337 14.0636C21.9042 14.2324 22 14.4613 22 14.7V17.4C22 17.6387 21.9042 17.8676 21.7337 18.0364C21.5632 18.2052 21.332 18.3 21.0909 18.3H20.1818V19.2C20.1818 19.6774 19.9903 20.1352 19.6493 20.4728C19.3083 20.8104 18.8458 21 18.3636 21H5.63636C5.15415 21 4.69169 20.8104 4.35071 20.4728C4.00974 20.1352 3.81818 19.6774 3.81818 19.2V18.3H2.90909C2.66799 18.3 2.43675 18.2052 2.26627 18.0364C2.09578 17.8676 2 17.6387 2 17.4V14.7C2 14.4613 2.09578 14.2324 2.26627 14.0636C2.43675 13.8948 2.66799 13.8 2.90909 13.8H3.81818C3.81818 12.1291 4.48863 10.5267 5.68205 9.34523C6.87546 8.16375 8.49408 7.5 10.1818 7.5H11.0909V6.357C10.5455 6.051 10.1818 5.466 10.1818 4.8C10.1818 4.32261 10.3734 3.86477 10.7144 3.52721C11.0553 3.18964 11.5178 3 12 3ZM7.90909 12.9C7.30633 12.9 6.72825 13.1371 6.30203 13.559C5.87581 13.981 5.63636 14.5533 5.63636 15.15C5.63636 15.7467 5.87581 16.319 6.30203 16.741C6.72825 17.1629 7.30633 17.4 7.90909 17.4C8.51186 17.4 9.08993 17.1629 9.51615 16.741C9.94237 16.319 10.1818 15.7467 10.1818 15.15C10.1818 14.5533 9.94237 13.981 9.51615 13.559C9.08993 13.1371 8.51186 12.9 7.90909 12.9ZM16.0909 12.9C15.4881 12.9 14.9101 13.1371 14.4838 13.559C14.0576 13.981 13.8182 14.5533 13.8182 15.15C13.8182 15.7467 14.0576 16.319 14.4838 16.741C14.9101 17.1629 15.4881 17.4 16.0909 17.4C16.6937 17.4 17.2718 17.1629 17.698 16.741C18.1242 16.319 18.3636 15.7467 18.3636 15.15C18.3636 14.5533 18.1242 13.981 17.698 13.559C17.2718 13.1371 16.6937 12.9 16.0909 12.9Z" fill="#e23f65"></path></svg>